<svg xmlns="http://www.w3.org/2000/svg" width="151" height="29" fill="none"><g clip-path="url(#cellxgene-discover-wordmark_svg__a)"><path fill="#fff" d="M26.135 13.772q.989.99 2.482.99.924 0 1.744-.388.82-.39 1.187-.79l.364-.39 1.904 2.084a4 4 0 0 1-.198.265q-.13.165-.608.585-.479.42-1.034.741-.553.321-1.465.582a6.9 6.9 0 0 1-1.894.258c-1.883 0-3.485-.63-4.797-1.894q-1.968-1.892-1.969-4.525 0-2.632 1.969-4.525 1.967-1.893 4.797-1.894.975 0 1.853.255.879.256 1.452.608.57.355 1 .711.427.355.615.609l.194.244-2 2.085q-.05-.067-.135-.174a4 4 0 0 0-.391-.374 5 5 0 0 0-.636-.472 3.8 3.8 0 0 0-.867-.374 3.7 3.7 0 0 0-1.088-.167q-1.49.001-2.482.986-.99.985-.99 2.475 0 1.489.99 2.482zM35.587 8.175V5.221h9.448v2.954l-5.375 6.24h5.556v2.947h-9.89v-2.948L40.7 8.175zM51.458 6.976q1.805-1.801 4.375-1.802.915 0 1.751.255.837.257 1.387.615c.368.241.687.483.966.728q.414.367.598.629l.194.258-.863.772q-.052-.086-.15-.221a5 5 0 0 0-.47-.49 5 5 0 0 0-.802-.625c-.289-.184-.666-.347-1.135-.5a4.7 4.7 0 0 0-1.476-.228c-1.373 0-2.536.48-3.478 1.435q-1.415 1.433-1.417 3.546 0 2.111 1.417 3.546t3.478 1.435q.772 0 1.476-.215.705-.211 1.17-.516.463-.302.815-.599c.235-.197.402-.374.504-.523l.16-.211.853.778a3 3 0 0 1-.204.266 8 8 0 0 1-.612.591q-.474.429-1.003.762-.53.337-1.387.598a6 6 0 0 1-1.772.265q-2.575 0-4.375-1.801c-1.204-1.2-1.802-2.66-1.802-4.376q.001-2.576 1.802-4.376zM71.412 16.162v1.2h-8.419V5.34h8.242v1.207h-6.95v3.947h5.576v1.2h-5.576v4.468zM73.666 17.362V5.34h1.292v10.822h6.177v1.2zM83.033 17.362V5.34h1.292v10.822h6.177v1.2zM100.712 8.774l-.761-.748-2.629 2.618-2.628-2.618-.761.748 2.635 2.624-2.635 2.625.754.755 2.635-2.628 2.642 2.628.748-.755-2.631-2.625z"></path><path fill="#8282FF" d="M24.769 22.37q1.215-.002 2.087.864.87.86.87 2.053.002 1.194-.87 2.054a2.86 2.86 0 0 1-2.087.864h-2.044V22.37zm-1.126.833v4.165h1.126q.85.001 1.445-.605.595-.601.595-1.479c0-.585-.198-1.074-.596-1.479a1.95 1.95 0 0 0-1.444-.605h-1.126zM29.406 22.367h.915V28.2h-.915zM34.914 26.083a1.2 1.2 0 0 0-.442-.286 5 5 0 0 0-.599-.187 7 7 0 0 1-.66-.204 3.3 3.3 0 0 1-.598-.292 1.3 1.3 0 0 1-.442-.486q-.171-.316-.17-.759.001-.674.517-1.128.515-.453 1.401-.452.326 0 .626.078.298.08.496.187.199.107.347.214t.217.184l.065.081-.581.585-.048-.054a1 1 0 0 0-.14-.123 1.416 1.416 0 0 0-.558-.269 1.7 1.7 0 0 0-.424-.054q-.453 0-.727.225-.276.224-.276.523.001.27.17.452.17.184.442.286.27.104.598.187.33.081.66.204.33.12.598.292c.18.116.327.276.442.49.116.214.17.462.17.758q.001.77-.554 1.261-.55.49-1.53.49-.4.001-.758-.095a2.5 2.5 0 0 1-.993-.493 2 2 0 0 1-.248-.225l-.081-.102.58-.581.055.071q.04.046.174.164.137.117.295.204t.422.16q.261.07.554.07.541 0 .854-.264a.83.83 0 0 0 .312-.657.63.63 0 0 0-.17-.448zM41.197 22.404q.408.115.673.282.266.168.466.33c.132.109.231.2.292.282l.089.113-.582.584-.071-.091a2 2 0 0 0-.214-.215 2.2 2.2 0 0 0-.357-.265 2.5 2.5 0 0 0-.5-.207 2.1 2.1 0 0 0-.65-.095q-.908 0-1.536.628a2.08 2.08 0 0 0-.63 1.537q.002.909.63 1.537.627.631 1.54.629.342.001.653-.095t.516-.231c.136-.089.259-.177.36-.266q.159-.132.235-.224l.065-.102.585.585q-.032.05-.099.129a3 3 0 0 1-.296.279 3.3 3.3 0 0 1-.49.353 3 3 0 0 1-.676.28 3 3 0 0 1-.857.125q-1.309 0-2.196-.87a2.87 2.87 0 0 1-.887-2.129q0-1.258.887-2.128t2.197-.87q.442-.001.85.115zM44.661 23.159q.888-.87 2.193-.87c.87 0 1.605.289 2.193.87a2.88 2.88 0 0 1 .888 2.128c0 .84-.296 1.547-.888 2.129q-.887.87-2.193.87-1.305 0-2.193-.87a2.87 2.87 0 0 1-.887-2.129q0-1.258.887-2.128m.657 3.665a2.08 2.08 0 0 0 1.536.629q.909 0 1.537-.629.628-.631.629-1.537 0-.906-.629-1.537a2.1 2.1 0 0 0-1.537-.628q-.908 0-1.536.628a2.1 2.1 0 0 0-.63 1.537q0 .909.63 1.537M50.703 22.367h.959l1.788 4.664 1.795-4.664h.956L53.909 28.2h-.914L50.7 22.367zM61.838 27.368v.833h-4.206v-5.834h4.124v.833h-3.21v1.54h2.544v.833h-2.544v1.788h3.292zM63.436 22.367h2.458q.809 0 1.343.517.535.516.534 1.278 0 .357-.123.67-.123.31-.292.49a3 3 0 0 1-.34.312 1.3 1.3 0 0 1-.293.184l-.119.054 1.333 2.329h-1l-1.247-2.25h-1.333v2.25h-.915v-5.834zm3.138 1.108a.93.93 0 0 0-.68-.275h-1.54v1.914h1.54q.409 0 .68-.276a.93.93 0 0 0 .275-.683q0-.408-.275-.683z"></path><path fill="#fff" d="M2.33 5.065H.39a.39.39 0 0 0-.39.39v11.737c0 .216.174.391.39.391H2.33a.39.39 0 0 0 .391-.39V5.455a.39.39 0 0 0-.39-.391M16.993 17.192a.393.393 0 0 1-.391.391H4.872a.393.393 0 0 1-.39-.39V5.462c0-.215.176-.391.39-.391h11.73c.214 0 .391.176.391.39zm-9.792-2.72c0 .215.177.391.391.391h6.29a.393.393 0 0 0 .391-.39v-6.29a.393.393 0 0 0-.39-.392h-6.29a.393.393 0 0 0-.392.391z"></path><path fill="#8282FF" d="M16.606.583H4.868a.39.39 0 0 0-.391.391v1.938c0 .216.175.391.391.391h11.737a.39.39 0 0 0 .39-.39V.973a.39.39 0 0 0-.39-.39"></path><path fill="#fff" d="M106.315 6.976q1.805-1.801 4.376-1.802.913 0 1.751.255.836.257 1.387.615.549.361.966.728.414.367.598.629l.194.258-.864.772q-.052-.086-.149-.221a5 5 0 0 0-.47-.49 5 5 0 0 0-.802-.625c-.289-.184-.666-.347-1.136-.5a4.7 4.7 0 0 0-1.475-.228c-1.374 0-2.536.48-3.478 1.435s-1.418 2.138-1.418 3.546q0 2.111 1.418 3.546t3.478 1.435q.72-.001 1.373-.17a4.4 4.4 0 0 0 1.075-.412q.417-.24.738-.469a2 2 0 0 0 .452-.408l.143-.166V12.38h-2.751v-1.2h4.032v3.866a2 2 0 0 1-.214.265q-.147.163-.625.592t-1.027.761q-.55.338-1.418.599a6 6 0 0 1-1.782.265q-2.575-.001-4.375-1.802-1.804-1.8-1.802-4.376.001-2.575 1.802-4.375zM127.112 16.162v1.2h-8.418V5.34h8.242v1.207h-6.95v3.947h5.576v1.2h-5.576v4.468zM139.219 5.34v12.022h-1.115l-7.378-9.7v9.7h-1.292V5.34h1.116l7.384 9.707V5.34h1.285M151 16.162v1.2h-8.418V5.34h8.241v1.207h-6.949v3.947h5.576v1.2h-5.576v4.468z"></path></g><defs><clipPath id="cellxgene-discover-wordmark_svg__a"><path fill="#fff" d="M0 .583h151v27.7H0z"></path></clipPath></defs></svg>