<svg xmlns="http://www.w3.org/2000/svg" width="28" height="28" fill="none" viewBox="0 0 23 23" data-testid="logo"><path fill="#fff" d="M3.108 5.98H.522A.52.52 0 0 0 0 6.5v15.66c0 .289.234.522.522.522h2.586a.52.52 0 0 0 .521-.521V6.502a.52.52 0 0 0-.521-.523M22.674 22.161a.525.525 0 0 1-.522.522H6.501a.525.525 0 0 1-.522-.522V6.51c0-.286.236-.522.522-.522h15.651c.286 0 .522.236.522.522zM9.61 18.532c0 .286.236.522.521.522h8.393a.525.525 0 0 0 .522-.522v-8.393a.525.525 0 0 0-.522-.521H10.13a.525.525 0 0 0-.521.521z"></path><path fill="#8282FF" d="M22.157 0H6.497a.52.52 0 0 0-.522.522v2.586c0 .288.233.521.522.521h15.66a.52.52 0 0 0 .522-.521V.522A.52.52 0 0 0 22.157 0"></path></svg>