<?xml version="1.0" encoding="utf-8"?>
<!-- Generator: Adobe Illustrator 25.4.1, SVG Export Plug-In . SVG Version: 6.00 Build 0)  -->
<svg version="1.1" xmlns="http://www.w3.org/2000/svg" xmlns:xlink="http://www.w3.org/1999/xlink" x="0px" y="0px"
	 viewBox="0 0 764.6 190.1" style="enable-background:new 0 0 764.6 190.1;" xml:space="preserve">
<style type="text/css">
	.st0{fill:#FFFFFF;}
</style>
<g>
	<g>
		<path class="st0" d="M4.4,19.6v79.3h20.4V8.4h-9.3C9.4,8.4,4.4,13.4,4.4,19.6z"/>
		<path class="st0" d="M96.6,19.4v43.4L55.8,8.6l-0.1-0.2H37.2v90.4h20V42.6l42.1,56.1l0.1,0.2h17.1V8.4h-9
			C101.5,8.4,96.6,13.4,96.6,19.4z"/>
		<path class="st0" d="M207.3,26.6V8.4H199c-6.5,0-11.7,5.2-11.7,11.7v42.8L146.6,8.6l-0.1-0.2h-18.5v90.4h20V42.6L190,98.7l0.1,0.2
			h17.1V82.1c-4-8.4-6.2-17.8-6.2-27.7C201,44.4,203.3,35,207.3,26.6z"/>
		<path class="st0" d="M403.8,8.4h-22l-23.1,62.4L335.7,8.4h-22.5l1.3,3.2c9.5,10.8,15.5,24.8,16.1,40.2l19.1,47.7h17.9L403.6,9
			L403.8,8.4z"/>
		<path class="st0" d="M440.4,7.8h-18.6l-38.4,90.5l-0.2,0.5h20.9l8.2-20.1h37.2l8.1,19.9l0.1,0.2H479L440.5,8L440.4,7.8z
			 M419.6,60.6l11.3-27.7l11.3,27.7H419.6z"/>
		<path class="st0" d="M461,16c0,6.4,5.2,11.6,11.6,11.6h15.5v71.5h20.4V27.7h27.2v-19H461V16z"/>
		<path class="st0" d="M553.6,8.4h-8.9v90.4h20.4V20C565.1,13.6,560,8.4,553.6,8.4z"/>
		<path class="st0" d="M625.2,6.9c-26.9,0-48,20.5-48,46.8v0.3c0,26.5,20.5,46.5,47.7,46.5c26.9,0,48-20.5,48-46.8v-0.3
			C672.9,26.9,652.4,6.9,625.2,6.9z M651.6,53.9c0,15.7-11.3,27.5-26.4,27.5c-15.2,0-26.7-11.9-26.7-27.8v-0.3
			c0-15.7,11.3-27.5,26.4-27.5c15.2,0,26.7,11.9,26.7,27.8V53.9z"/>
		<path class="st0" d="M748.4,8.4h-9v54.4L698.6,8.6l-0.1-0.2H680v90.4h20V42.6l42.1,56.1l0.1,0.2h17.1V19.4
			C759.4,13.3,754.5,8.4,748.4,8.4z"/>
	</g>
	<g>
		<path class="st0" d="M432.1,136.1L432.1,136.1c0-7.1,5.3-12.8,12.8-12.8c4.6,0,7.4,1.5,9.7,3.8l-3.4,4c-1.9-1.7-3.8-2.8-6.3-2.8
			c-4.2,0-7.1,3.4-7.1,7.7v0.1c0,4.2,2.9,7.7,7.1,7.7c2.8,0,4.5-1.1,6.5-2.9l3.4,3.5c-2.5,2.7-5.3,4.4-10.1,4.4
			C437.5,148.8,432.1,143.2,432.1,136.1z"/>
		<path class="st0" d="M456.5,142.9L456.5,142.9c0-4.2,3.1-6.1,7.6-6.1c1.9,0,3.3,0.3,4.6,0.8v-0.3c0-2.2-1.4-3.4-4-3.4
			c-2,0-3.5,0.4-5.2,1l-1.3-4.1c2.1-0.9,4.1-1.5,7.3-1.5c2.9,0,5,0.8,6.4,2.1c1.4,1.4,2,3.5,2,6v10.9h-5.2v-2
			c-1.3,1.4-3.1,2.4-5.7,2.4C459.5,148.7,456.5,146.6,456.5,142.9z M468.8,141.7v-0.9c-0.9-0.4-2.1-0.7-3.4-0.7
			c-2.3,0-3.7,0.9-3.7,2.6v0.1c0,1.4,1.2,2.3,2.9,2.3C467.1,145,468.8,143.6,468.8,141.7z"/>
		<path class="st0" d="M477.6,129.5h5.3v2.7c1.2-1.6,2.8-3,5.5-3c4,0,6.4,2.7,6.4,7v12.2h-5.3v-10.5c0-2.5-1.2-3.8-3.2-3.8
			c-2,0-3.3,1.3-3.3,3.8v10.5h-5.3V129.5z"/>
		<path class="st0" d="M497.5,142.9L497.5,142.9c0-4.2,3.1-6.1,7.6-6.1c1.9,0,3.3,0.3,4.6,0.8v-0.3c0-2.2-1.4-3.4-4-3.4
			c-2,0-3.5,0.4-5.2,1l-1.3-4.1c2.1-0.9,4.1-1.5,7.3-1.5c2.9,0,5,0.8,6.4,2.1c1.4,1.4,2,3.5,2,6v10.9h-5.2v-2
			c-1.3,1.4-3.1,2.4-5.7,2.4C500.4,148.7,497.5,146.6,497.5,142.9z M509.8,141.7v-0.9c-0.9-0.4-2.1-0.7-3.4-0.7
			c-2.3,0-3.7,0.9-3.7,2.6v0.1c0,1.4,1.2,2.3,2.9,2.3C508.1,145,509.8,143.6,509.8,141.7z"/>
		<path class="st0" d="M517.7,138.9L517.7,138.9c0-6.4,4.1-9.8,8.6-9.8c2.8,0,4.6,1.3,5.9,2.8v-9.3h5.3v25.7h-5.3v-2.7
			c-1.3,1.8-3.1,3.1-5.9,3.1C521.9,148.7,517.7,145.2,517.7,138.9z M532.3,138.9L532.3,138.9c0-3.2-2.1-5.3-4.6-5.3
			c-2.5,0-4.6,2-4.6,5.2v0.1c0,3.1,2.1,5.2,4.6,5.2C530.2,144.1,532.3,142.1,532.3,138.9z"/>
		<path class="st0" d="M540.3,142.9L540.3,142.9c0-4.2,3.1-6.1,7.6-6.1c1.9,0,3.3,0.3,4.6,0.8v-0.3c0-2.2-1.4-3.4-4-3.4
			c-2,0-3.5,0.4-5.2,1l-1.3-4.1c2.1-0.9,4.1-1.5,7.3-1.5c2.9,0,5,0.8,6.4,2.1c1.4,1.4,2,3.5,2,6v10.9h-5.2v-2
			c-1.3,1.4-3.1,2.4-5.7,2.4C543.2,148.7,540.3,146.6,540.3,142.9z M552.6,141.7v-0.9c-0.9-0.4-2.1-0.7-3.4-0.7
			c-2.3,0-3.7,0.9-3.7,2.6v0.1c0,1.4,1.2,2.3,2.9,2.3C550.9,145,552.6,143.6,552.6,141.7z"/>
		<path class="st0" d="M571.6,123.7h18.7v4.9H577v5.2h11.7v4.9H577v9.5h-5.4V123.7z"/>
		<path class="st0" d="M591.8,139L591.8,139c0-5.5,4.4-9.9,10.2-9.9c5.8,0,10.2,4.3,10.2,9.7v0.1c0,5.4-4.4,9.8-10.2,9.8
			C596.1,148.8,591.8,144.4,591.8,139z M606.9,139L606.9,139c0-2.8-2-5.3-5-5.3c-3.1,0-4.9,2.4-4.9,5.1v0.1c0,2.8,2,5.2,5,5.2
			C605.1,144.1,606.9,141.8,606.9,139z"/>
		<path class="st0" d="M615.1,141.7v-12.2h5.3V140c0,2.5,1.2,3.8,3.2,3.8s3.3-1.3,3.3-3.8v-10.5h5.3v18.9H627v-2.7
			c-1.2,1.6-2.8,3-5.5,3C617.4,148.7,615.1,146,615.1,141.7z"/>
		<path class="st0" d="M636.2,129.5h5.3v2.7c1.2-1.6,2.8-3,5.5-3c4,0,6.4,2.7,6.4,7v12.2h-5.3v-10.5c0-2.5-1.2-3.8-3.2-3.8
			c-2,0-3.3,1.3-3.3,3.8v10.5h-5.3V129.5z"/>
		<path class="st0" d="M656.4,138.9L656.4,138.9c0-6.4,4.1-9.8,8.6-9.8c2.8,0,4.6,1.3,5.9,2.8v-9.3h5.3v25.7h-5.3v-2.7
			c-1.3,1.8-3.1,3.1-5.9,3.1C660.6,148.7,656.4,145.2,656.4,138.9z M671,138.9L671,138.9c0-3.2-2.1-5.3-4.6-5.3
			c-2.5,0-4.6,2-4.6,5.2v0.1c0,3.1,2.1,5.2,4.6,5.2C668.9,144.1,671,142.1,671,138.9z"/>
		<path class="st0" d="M679,142.9L679,142.9c0-4.2,3.1-6.1,7.6-6.1c1.9,0,3.3,0.3,4.6,0.8v-0.3c0-2.2-1.4-3.4-4-3.4
			c-2,0-3.5,0.4-5.2,1l-1.3-4.1c2.1-0.9,4.1-1.5,7.3-1.5c2.9,0,5,0.8,6.4,2.1c1.4,1.4,2,3.5,2,6v10.9h-5.2v-2
			c-1.3,1.4-3.1,2.4-5.7,2.4C681.9,148.7,679,146.6,679,142.9z M691.3,141.7v-0.9c-0.9-0.4-2.1-0.7-3.4-0.7c-2.3,0-3.7,0.9-3.7,2.6
			v0.1c0,1.4,1.2,2.3,2.9,2.3C689.6,145,691.3,143.6,691.3,141.7z"/>
		<path class="st0" d="M700.8,143v-8.9h-2.3v-4.6h2.3v-4.8h5.3v4.8h4.4v4.6h-4.4v8.1c0,1.2,0.5,1.8,1.7,1.8c1,0,1.9-0.2,2.6-0.7v4.3
			c-1.1,0.7-2.4,1.1-4.2,1.1C703,148.6,700.8,147.3,700.8,143z"/>
		<path class="st0" d="M713.7,122.7h5.6v4.7h-5.6V122.7z M713.9,129.5h5.3v18.9h-5.3V129.5z"/>
		<path class="st0" d="M722.4,139L722.4,139c0-5.5,4.4-9.9,10.2-9.9c5.8,0,10.2,4.3,10.2,9.7v0.1c0,5.4-4.4,9.8-10.2,9.8
			C726.8,148.8,722.4,144.4,722.4,139z M737.6,139L737.6,139c0-2.8-2-5.3-5-5.3c-3.1,0-4.9,2.4-4.9,5.1v0.1c0,2.8,2,5.2,5,5.2
			C735.7,144.1,737.6,141.8,737.6,139z"/>
		<path class="st0" d="M745.8,129.5h5.3v2.7c1.2-1.6,2.8-3,5.5-3c4,0,6.4,2.7,6.4,7v12.2h-5.3v-10.5c0-2.5-1.2-3.8-3.2-3.8
			c-2,0-3.3,1.3-3.3,3.8v10.5h-5.3V129.5z"/>
		<path class="st0" d="M433.5,169.5h-2.2v-4.4h2.2v-1.2c0-2.1,0.5-3.6,1.5-4.6c1-1,2.4-1.5,4.3-1.5c1.7,0,2.8,0.2,3.8,0.5v4.4
			c-0.8-0.3-1.5-0.5-2.4-0.5c-1.2,0-1.9,0.6-1.9,2v0.7h4.3v4.4h-4.3v14.3h-5.3V169.5z"/>
		<path class="st0" d="M443.9,174.4L443.9,174.4c0-5.5,4.4-9.9,10.2-9.9c5.8,0,10.2,4.3,10.2,9.7v0.1c0,5.4-4.4,9.8-10.2,9.8
			C448.2,184.2,443.9,179.8,443.9,174.4z M459,174.4L459,174.4c0-2.8-2-5.3-5-5.3c-3.1,0-4.9,2.4-4.9,5.1v0.1c0,2.8,2,5.2,5,5.2
			C457.2,179.5,459,177.2,459,174.4z"/>
		<path class="st0" d="M467.3,164.9h5.3v3.8c1.1-2.6,2.8-4.3,6-4.2v5.6h-0.3c-3.6,0-5.7,2.1-5.7,6.6v7h-5.3V164.9z"/>
		<path class="st0" d="M491.6,159.1h5.4v24.6h-5.4V159.1z"/>
		<path class="st0" d="M501.7,164.9h5.3v2.7c1.2-1.6,2.8-3,5.5-3c4,0,6.4,2.7,6.4,7v12.2h-5.3v-10.5c0-2.5-1.2-3.8-3.2-3.8
			c-2,0-3.3,1.3-3.3,3.8v10.5h-5.3V164.9z"/>
		<path class="st0" d="M522.7,164.9h5.3v2.7c1.2-1.6,2.8-3,5.5-3c4,0,6.4,2.7,6.4,7v12.2h-5.3v-10.5c0-2.5-1.2-3.8-3.2-3.8
			c-2,0-3.3,1.3-3.3,3.8v10.5h-5.3V164.9z"/>
		<path class="st0" d="M542.9,174.4L542.9,174.4c0-5.5,4.4-9.9,10.2-9.9c5.8,0,10.2,4.3,10.2,9.7v0.1c0,5.4-4.4,9.8-10.2,9.8
			C547.2,184.2,542.9,179.8,542.9,174.4z M558,174.4L558,174.4c0-2.8-2-5.3-5-5.3c-3.1,0-4.9,2.4-4.9,5.1v0.1c0,2.8,2,5.2,5,5.2
			C556.2,179.5,558,177.2,558,174.4z"/>
		<path class="st0" d="M563.5,164.9h5.7l4.2,12.6l4.3-12.6h5.6l-7.4,19h-4.9L563.5,164.9z"/>
		<path class="st0" d="M583.4,178.3L583.4,178.3c0-4.2,3.1-6.1,7.6-6.1c1.9,0,3.3,0.3,4.6,0.8v-0.3c0-2.2-1.4-3.4-4-3.4
			c-2,0-3.5,0.4-5.2,1l-1.3-4.1c2.1-0.9,4.1-1.5,7.3-1.5c2.9,0,5,0.8,6.4,2.1c1.4,1.4,2,3.5,2,6v10.9h-5.2v-2
			c-1.3,1.4-3.1,2.4-5.7,2.4C586.3,184.1,583.4,182,583.4,178.3z M595.7,177.1v-0.9c-0.9-0.4-2.1-0.7-3.4-0.7
			c-2.3,0-3.7,0.9-3.7,2.6v0.1c0,1.4,1.2,2.3,2.9,2.3C594,180.4,595.7,179,595.7,177.1z"/>
		<path class="st0" d="M605.2,178.4v-8.9h-2.3v-4.6h2.3v-4.8h5.3v4.8h4.4v4.6h-4.4v8.1c0,1.2,0.5,1.8,1.7,1.8c1,0,1.9-0.2,2.6-0.7
			v4.3c-1.1,0.7-2.4,1.1-4.2,1.1C607.4,184,605.2,182.7,605.2,178.4z"/>
		<path class="st0" d="M618.1,158.1h5.6v4.7h-5.6V158.1z M618.3,164.9h5.3v18.9h-5.3V164.9z"/>
		<path class="st0" d="M626.8,174.4L626.8,174.4c0-5.5,4.4-9.9,10.2-9.9c5.8,0,10.2,4.3,10.2,9.7v0.1c0,5.4-4.4,9.8-10.2,9.8
			C631.2,184.2,626.8,179.8,626.8,174.4z M642,174.4L642,174.4c0-2.8-2-5.3-5-5.3c-3.1,0-4.9,2.4-4.9,5.1v0.1c0,2.8,2,5.2,5,5.2
			C640.1,179.5,642,177.2,642,174.4z"/>
		<path class="st0" d="M650.2,164.9h5.3v2.7c1.2-1.6,2.8-3,5.5-3c4,0,6.4,2.7,6.4,7v12.2h-5.3v-10.5c0-2.5-1.2-3.8-3.2-3.8
			c-2,0-3.3,1.3-3.3,3.8v10.5h-5.3V164.9z"/>
	</g>
	<g>
		<path class="st0" d="M5.4,122.8h18.7v4.9H10.8v5.2h11.7v4.9H10.8v9.5H5.4V122.8z"/>
		<path class="st0" d="M25.6,138.1L25.6,138.1c0-5.5,4.4-9.9,10.2-9.9c5.8,0,10.2,4.3,10.2,9.7v0.1c0,5.4-4.4,9.8-10.2,9.8
			C29.9,147.8,25.6,143.5,25.6,138.1z M40.7,138.1L40.7,138.1c0-2.8-2-5.3-5-5.3c-3.1,0-4.9,2.4-4.9,5.1v0.1c0,2.8,2,5.2,5,5.2
			C38.8,143.2,40.7,140.8,40.7,138.1z"/>
		<path class="st0" d="M48.9,128.5h5.3v2.7c1.2-1.6,2.8-3,5.5-3c4,0,6.4,2.7,6.4,7v12.2h-5.3v-10.5c0-2.5-1.2-3.8-3.2-3.8
			s-3.3,1.3-3.3,3.8v10.5h-5.3V128.5z"/>
		<path class="st0" d="M69.1,138L69.1,138c0-6.4,4.1-9.8,8.6-9.8c2.8,0,4.6,1.3,5.9,2.8v-9.3h5.3v25.7h-5.3v-2.7
			c-1.3,1.8-3.1,3.1-5.9,3.1C73.3,147.7,69.1,144.3,69.1,138z M83.7,138L83.7,138c0-3.2-2.1-5.3-4.6-5.3c-2.5,0-4.6,2-4.6,5.2v0.1
			c0,3.1,2.1,5.2,4.6,5.2C81.6,143.2,83.7,141.1,83.7,138z"/>
		<path class="st0" d="M91.7,142L91.7,142c0-4.2,3.1-6.1,7.6-6.1c1.9,0,3.3,0.3,4.6,0.8v-0.3c0-2.2-1.4-3.4-4-3.4
			c-2,0-3.5,0.4-5.2,1l-1.3-4.1c2.1-0.9,4.1-1.5,7.3-1.5c2.9,0,5,0.8,6.4,2.1c1.4,1.4,2,3.5,2,6v10.9h-5.2v-2
			c-1.3,1.4-3.1,2.4-5.7,2.4C94.6,147.7,91.7,145.7,91.7,142z M104,140.7v-0.9c-0.9-0.4-2.1-0.7-3.4-0.7c-2.3,0-3.7,0.9-3.7,2.6v0.1
			c0,1.4,1.2,2.3,2.9,2.3C102.3,144,104,142.7,104,140.7z"/>
		<path class="st0" d="M113.5,142v-8.9h-2.3v-4.6h2.3v-4.8h5.3v4.8h4.4v4.6h-4.4v8.1c0,1.2,0.5,1.8,1.7,1.8c1,0,1.9-0.2,2.6-0.7v4.3
			c-1.1,0.7-2.4,1.1-4.2,1.1C115.7,147.7,113.5,146.4,113.5,142z"/>
		<path class="st0" d="M126.4,121.7h5.6v4.7h-5.6V121.7z M126.6,128.5h5.3v18.9h-5.3V128.5z"/>
		<path class="st0" d="M135.1,138.1L135.1,138.1c0-5.5,4.4-9.9,10.2-9.9c5.8,0,10.2,4.3,10.2,9.7v0.1c0,5.4-4.4,9.8-10.2,9.8
			C139.5,147.8,135.1,143.5,135.1,138.1z M150.3,138.1L150.3,138.1c0-2.8-2-5.3-5-5.3c-3.1,0-4.9,2.4-4.9,5.1v0.1c0,2.8,2,5.2,5,5.2
			C148.4,143.2,150.3,140.8,150.3,138.1z"/>
		<path class="st0" d="M158.5,128.5h5.3v2.7c1.2-1.6,2.8-3,5.5-3c4,0,6.4,2.7,6.4,7v12.2h-5.3v-10.5c0-2.5-1.2-3.8-3.2-3.8
			s-3.3,1.3-3.3,3.8v10.5h-5.3V128.5z"/>
		<path class="st0" d="M188.3,138.1L188.3,138.1c0-5.5,4.1-9.9,9.9-9.9c3.6,0,5.8,1.2,7.5,3.2l-3.3,3.5c-1.2-1.3-2.4-2.1-4.3-2.1
			c-2.7,0-4.6,2.4-4.6,5.1v0.1c0,2.9,1.9,5.2,4.8,5.2c1.8,0,3-0.8,4.3-2l3.1,3.2c-1.8,2-3.9,3.4-7.7,3.4
			C192.5,147.8,188.3,143.4,188.3,138.1z"/>
		<path class="st0" d="M207.3,142L207.3,142c0-4.2,3.1-6.1,7.6-6.1c1.9,0,3.3,0.3,4.6,0.8v-0.3c0-2.2-1.4-3.4-4-3.4
			c-2,0-3.5,0.4-5.2,1l-1.3-4.1c2.1-0.9,4.1-1.5,7.3-1.5c2.9,0,5,0.8,6.4,2.1c1.4,1.4,2,3.5,2,6v10.9h-5.2v-2
			c-1.3,1.4-3.1,2.4-5.7,2.4C210.2,147.7,207.3,145.7,207.3,142z M219.6,140.7v-0.9c-0.9-0.4-2.1-0.7-3.4-0.7
			c-2.3,0-3.7,0.9-3.7,2.6v0.1c0,1.4,1.2,2.3,2.9,2.3C217.9,144,219.6,142.7,219.6,140.7z"/>
		<path class="st0" d="M228.4,128.5h5.3v2.7c1.2-1.6,2.8-3,5.5-3c4,0,6.4,2.7,6.4,7v12.2h-5.3v-10.5c0-2.5-1.2-3.8-3.2-3.8
			c-2,0-3.3,1.3-3.3,3.8v10.5h-5.3V128.5z"/>
		<path class="st0" d="M248.3,142L248.3,142c0-4.2,3.1-6.1,7.6-6.1c1.9,0,3.3,0.3,4.6,0.8v-0.3c0-2.2-1.4-3.4-4-3.4
			c-2,0-3.5,0.4-5.2,1l-1.3-4.1c2.1-0.9,4.1-1.5,7.3-1.5c2.9,0,5,0.8,6.4,2.1c1.4,1.4,2,3.5,2,6v10.9h-5.2v-2
			c-1.3,1.4-3.1,2.4-5.7,2.4C251.2,147.7,248.3,145.7,248.3,142z M260.6,140.7v-0.9c-0.9-0.4-2.1-0.7-3.4-0.7
			c-2.3,0-3.7,0.9-3.7,2.6v0.1c0,1.4,1.2,2.3,2.9,2.3C258.9,144,260.6,142.7,260.6,140.7z"/>
		<path class="st0" d="M268.5,138L268.5,138c0-6.4,4.1-9.8,8.6-9.8c2.8,0,4.6,1.3,5.9,2.8v-9.3h5.3v25.7H283v-2.7
			c-1.3,1.8-3.1,3.1-5.9,3.1C272.7,147.7,268.5,144.3,268.5,138z M283,138L283,138c0-3.2-2.1-5.3-4.6-5.3c-2.5,0-4.6,2-4.6,5.2v0.1
			c0,3.1,2.1,5.2,4.6,5.2C281,143.2,283,141.1,283,138z"/>
		<path class="st0" d="M292.3,121.7h5.6v4.7h-5.6V121.7z M292.5,128.5h5.3v18.9h-5.3V128.5z"/>
		<path class="st0" d="M301,138.1L301,138.1c0-5.5,3.8-9.9,9.3-9.9c6.3,0,9.2,4.9,9.2,10.2c0,0.4,0,0.9-0.1,1.4h-13.1
			c0.5,2.4,2.2,3.7,4.6,3.7c1.8,0,3.1-0.6,4.6-1.9l3.1,2.7c-1.8,2.2-4.3,3.5-7.7,3.5C305.2,147.8,301,143.8,301,138.1z M314.3,136.5
			c-0.3-2.4-1.7-4-4-4c-2.2,0-3.7,1.6-4.1,4H314.3z"/>
		<path class="st0" d="M322.6,128.5h5.3v2.7c1.2-1.6,2.8-3,5.5-3c4,0,6.4,2.7,6.4,7v12.2h-5.3v-10.5c0-2.5-1.2-3.8-3.2-3.8
			s-3.3,1.3-3.3,3.8v10.5h-5.3V128.5z"/>
		<path class="st0" d="M343.7,128.5h5.3v2.7c1.2-1.6,2.8-3,5.5-3c4,0,6.4,2.7,6.4,7v12.2h-5.3v-10.5c0-2.5-1.2-3.8-3.2-3.8
			c-2,0-3.3,1.3-3.3,3.8v10.5h-5.3V128.5z"/>
		<path class="st0" d="M363.8,138.1L363.8,138.1c0-5.5,3.8-9.9,9.3-9.9c6.3,0,9.2,4.9,9.2,10.2c0,0.4,0,0.9-0.1,1.4h-13.1
			c0.5,2.4,2.2,3.7,4.6,3.7c1.8,0,3.1-0.6,4.6-1.9l3.1,2.7c-1.8,2.2-4.3,3.5-7.7,3.5C368,147.8,363.8,143.8,363.8,138.1z
			 M377.1,136.5c-0.3-2.4-1.7-4-4-4c-2.2,0-3.7,1.6-4.1,4H377.1z"/>
		<path class="st0" d="M4.8,163.9h5.3v2.7c1.3-1.8,3.1-3.1,5.9-3.1c4.4,0,8.6,3.4,8.6,9.7v0.1c0,6.3-4.1,9.7-8.6,9.7
			c-2.8,0-4.6-1.3-5.9-2.8v8.1H4.8V163.9z M19.3,173.4L19.3,173.4c0-3.2-2.1-5.3-4.6-5.3c-2.5,0-4.6,2.1-4.6,5.2v0.1
			c0,3.1,2.1,5.2,4.6,5.2C17.1,178.6,19.3,176.5,19.3,173.4z"/>
		<path class="st0" d="M26.7,173.5L26.7,173.5c0-5.5,4.4-9.9,10.2-9.9c5.8,0,10.2,4.3,10.2,9.7v0.1c0,5.4-4.4,9.8-10.2,9.8
			C31.1,183.2,26.7,178.9,26.7,173.5z M41.9,173.5L41.9,173.5c0-2.8-2-5.3-5-5.3c-3.1,0-4.9,2.4-4.9,5.1v0.1c0,2.8,2,5.2,5,5.2
			C40,178.6,41.9,176.2,41.9,173.5z"/>
		<path class="st0" d="M50,176.1v-12.2h5.3v10.5c0,2.5,1.2,3.8,3.2,3.8s3.3-1.3,3.3-3.8v-10.5h5.3v18.9h-5.3v-2.7
			c-1.2,1.6-2.8,3-5.5,3C52.4,183.1,50,180.5,50,176.1z"/>
		<path class="st0" d="M71.2,163.9h5.3v3.8c1.1-2.6,2.8-4.3,6-4.2v5.6h-0.3c-3.6,0-5.7,2.1-5.7,6.6v7h-5.3V163.9z"/>
		<path class="st0" d="M94.9,157.1h5.3v25.7h-5.3V157.1z"/>
		<path class="st0" d="M103.1,167.3c2.4-0.2,3.6-1.5,3.4-3.5h-2.2v-5.6h5.7v4.7c0,4.6-2.3,6.5-6.5,6.6L103.1,167.3z"/>
		<path class="st0" d="M113.7,157.1h5.6v4.7h-5.6V157.1z M113.8,163.9h5.3v18.9h-5.3V163.9z"/>
		<path class="st0" d="M123.3,163.9h5.3v2.7c1.2-1.6,2.8-3,5.5-3c4,0,6.4,2.7,6.4,7v12.2h-5.3v-10.5c0-2.5-1.2-3.8-3.2-3.8
			s-3.3,1.3-3.3,3.8v10.5h-5.3V163.9z"/>
		<path class="st0" d="M144.4,163.9h5.3v2.7c1.2-1.6,2.8-3,5.5-3c4,0,6.4,2.7,6.4,7v12.2h-5.3v-10.5c0-2.5-1.2-3.8-3.2-3.8
			s-3.3,1.3-3.3,3.8v10.5h-5.3V163.9z"/>
		<path class="st0" d="M164.5,173.5L164.5,173.5c0-5.5,4.4-9.9,10.2-9.9c5.8,0,10.2,4.3,10.2,9.7v0.1c0,5.4-4.4,9.8-10.2,9.8
			C168.8,183.2,164.5,178.9,164.5,173.5z M179.6,173.5L179.6,173.5c0-2.8-2-5.3-5-5.3c-3.1,0-4.9,2.4-4.9,5.1v0.1c0,2.8,2,5.2,5,5.2
			C177.8,178.6,179.6,176.2,179.6,173.5z"/>
		<path class="st0" d="M185.1,163.9h5.7l4.2,12.6l4.3-12.6h5.6l-7.4,19h-4.9L185.1,163.9z"/>
		<path class="st0" d="M205,177.4L205,177.4c0-4.2,3.1-6.1,7.6-6.1c1.9,0,3.3,0.3,4.6,0.8v-0.3c0-2.2-1.4-3.4-4-3.4
			c-2,0-3.5,0.4-5.2,1l-1.3-4.1c2.1-0.9,4.1-1.5,7.3-1.5c2.9,0,5,0.8,6.4,2.1c1.4,1.4,2,3.5,2,6v10.9h-5.2v-2
			c-1.3,1.4-3.1,2.4-5.7,2.4C207.9,183.1,205,181.1,205,177.4z M217.3,176.1v-0.9c-0.9-0.4-2.1-0.7-3.4-0.7c-2.3,0-3.7,0.9-3.7,2.6
			v0.1c0,1.4,1.2,2.3,2.9,2.3C215.6,179.4,217.3,178.1,217.3,176.1z"/>
		<path class="st0" d="M226.8,177.4v-8.9h-2.3v-4.6h2.3v-4.8h5.3v4.8h4.4v4.6h-4.4v8.1c0,1.2,0.5,1.8,1.7,1.8c1,0,1.9-0.2,2.6-0.7
			v4.3c-1.1,0.7-2.4,1.1-4.2,1.1C229,183.1,226.8,181.8,226.8,177.4z"/>
		<path class="st0" d="M239.7,157.1h5.6v4.7h-5.6V157.1z M239.9,163.9h5.3v18.9h-5.3V163.9z"/>
		<path class="st0" d="M248.5,173.5L248.5,173.5c0-5.5,4.4-9.9,10.2-9.9c5.8,0,10.2,4.3,10.2,9.7v0.1c0,5.4-4.4,9.8-10.2,9.8
			C252.8,183.2,248.5,178.9,248.5,173.5z M263.6,173.5L263.6,173.5c0-2.8-2-5.3-5-5.3c-3.1,0-4.9,2.4-4.9,5.1v0.1c0,2.8,2,5.2,5,5.2
			C261.8,178.6,263.6,176.2,263.6,173.5z"/>
		<path class="st0" d="M271.9,163.9h5.3v2.7c1.2-1.6,2.8-3,5.5-3c4,0,6.4,2.7,6.4,7v12.2h-5.3v-10.5c0-2.5-1.2-3.8-3.2-3.8
			s-3.3,1.3-3.3,3.8v10.5h-5.3V163.9z"/>
	</g>
	<g>
		<g>
			<g>
				<path class="st0" d="M262,23c-0.3,0.2-0.7,0.3-1,0.5c3.9,0.4,7.8,0.8,11.4,2c14.3,4.6,22.7,19.9,23.4,33.5
					c1,20.3-13.9,37.1-35.7,37.6c-12.5,0.3-24.4-4.7-32.6-13.6c-7.2-7.9-11.6-17.2-13.3-28.6c-0.1-0.3-0.3-0.5-0.7-0.5
					c-0.3,0-0.6,0.3-0.6,0.6c0,2.2,0,4.8,0.5,7.4c3.1,17.8,15.7,32.8,33.7,39.9c18,7.1,34.7,4.3,50.2-6.2
					c24.7-16.7,23.7-54-2.6-69.3C285.9,21.1,271.7,18.4,262,23z"/>
			</g>
		</g>
		<g>
			<g>
				<path class="st0" d="M270.9,84.3c0.3-0.2,0.6-0.3,1-0.5c-3.9-0.3-7.8-0.6-11.5-1.7c-14.4-4.2-23.2-19.3-24.2-32.9
					c-1.4-20.3,13-37.4,34.8-38.4c12.5-0.6,24.5,4.1,32.9,12.8c7.4,7.7,12,17,14,28.3c0.1,0.3,0.4,0.5,0.7,0.5
					c0.3,0,0.6-0.3,0.6-0.6c0-2.2-0.1-4.8-0.7-7.4c-3.6-17.8-16.5-32.4-34.6-39.1c-18.1-6.7-34.8-3.5-50.1,7.3
					c-24.3,17.2-22.4,54.5,4.3,69.2C247,86.7,261.4,89.2,270.9,84.3z"/>
			</g>
		</g>
	</g>
</g>
</svg>
