<?xml version="1.0" encoding="utf-8"?>
<!-- Generator: Adobe Illustrator 25.4.1, SVG Export Plug-In . SVG Version: 6.00 Build 0)  -->
<svg version="1.1" xmlns="http://www.w3.org/2000/svg" xmlns:xlink="http://www.w3.org/1999/xlink" x="0px" y="0px"
	 viewBox="0 0 764.6 190.1" style="enable-background:new 0 0 764.6 190.1;" xml:space="preserve">
<style type="text/css">
	.st0{fill:#050509;}
	.st1{fill:url(#SVGID_1_);}
	.st2{fill:url(#SVGID_00000005974825884296138240000015986016197064721069_);}
</style>
<g>
	<g>
		<path class="st0" d="M5.4,19.9v79.2h20.4V8.7h-9.3C10.3,8.7,5.4,13.7,5.4,19.9C5.4,19.9,5.4,19.9,5.4,19.9z"/>
		<path class="st0" d="M97.5,19.7v43.4L56.7,8.9l-0.1-0.1H38.1v90.4h20V42.9l42.1,56l0.1,0.1h17.1V8.7h-9
			C102.4,8.7,97.5,13.6,97.5,19.7z"/>
		<path class="st0" d="M208.1,26.9V8.7h-8.3c-6.4,0-11.7,5.2-11.7,11.7c0,0,0,0,0,0v42.7L147.4,8.9l-0.1-0.1h-18.5v90.4h20V42.9
			l42,56l0.1,0.1h17.1V82.3C199.8,64.8,199.8,44.4,208.1,26.9L208.1,26.9z"/>
		<path class="st0" d="M404.5,8.7h-22l-23.1,62.4L336.4,8.7h-22.5l1.3,3.2c9.8,11.1,15.5,25.3,16.1,40.2l19,47.6h17.9l36.2-90.4
			L404.5,8.7z"/>
		<path class="st0" d="M441.1,8.1h-18.6l-38.3,90.5l-0.2,0.5h20.9l8.2-20.1h37.2l8.1,19.9l0.1,0.2h21.3L441.2,8.3L441.1,8.1z
			 M420.3,60.8l11.3-27.6l11.3,27.6H420.3z"/>
		<path class="st0" d="M461.6,16.3c0,6.4,5.2,11.6,11.6,11.6h15.5v71.4h20.4V27.9h27.2V9h-74.7V16.3z"/>
		<path class="st0" d="M554.2,8.7h-8.9v90.4h20.4V20.3C565.7,13.9,560.6,8.7,554.2,8.7C554.2,8.7,554.2,8.7,554.2,8.7z"/>
		<path class="st0" d="M625.7,7.2c-26.9,0-48,20.5-48,46.7v0.2c0,26.5,20.5,46.5,47.7,46.5c26.9,0,48-20.5,48-46.7v-0.3
			C673.4,27.1,652.9,7.2,625.7,7.2z M652.1,54.1c0,15.7-11.3,27.5-26.4,27.5c-15.2,0-26.6-11.9-26.6-27.8v-0.3
			c0-15.7,11.3-27.5,26.4-27.5c15.2,0,26.6,11.9,26.6,27.8V54.1z"/>
		<path class="st0" d="M748.8,8.7h-9v54.4L699.1,8.9L699,8.7h-18.5v90.4h20V42.9l42.1,56l0.1,0.1h17.1V19.7
			C759.8,13.6,754.9,8.7,748.8,8.7z"/>
		<linearGradient id="SVGID_1_" gradientUnits="userSpaceOnUse" x1="300.3859" y1="47.376" x2="235.4926" y2="86.8763">
			<stop  offset="0" style="stop-color:#E83829"/>
			<stop  offset="1" style="stop-color:#630832"/>
		</linearGradient>
		<path class="st1" d="M262.8,23.3c-0.3,0.2-0.6,0.3-1,0.5c3.9,0.3,7.7,0.9,11.4,2c14.3,4.6,22.7,19.8,23.4,33.4
			c1,20.2-13.8,37-35.6,37.5c-12.3,0.4-24.2-4.6-32.6-13.6c-7.2-7.9-11.6-17.2-13.3-28.6c-0.1-0.3-0.4-0.5-0.7-0.5
			c-0.3,0-0.6,0.3-0.6,0.6c-0.1,2.5,0.1,5,0.5,7.4c3.1,17.8,15.7,32.7,33.7,39.9c17.9,7.1,34.7,4.3,50.2-6.2
			c24.7-16.7,23.7-53.9-2.6-69.3C286.8,21.4,272.4,18.6,262.8,23.3z"/>

			<linearGradient id="SVGID_00000055701100462219703550000008216270984057051071_" gradientUnits="userSpaceOnUse" x1="237.6403" y1="65.5694" x2="288.4263" y2="23.2477">
			<stop  offset="4.363100e-04" style="stop-color:#E83829"/>
			<stop  offset="1" style="stop-color:#630832"/>
		</linearGradient>
		<path style="fill:url(#SVGID_00000055701100462219703550000008216270984057051071_);" d="M271.7,84.5c0.3-0.2,0.6-0.3,1-0.5
			c-3.9-0.2-7.7-0.7-11.5-1.7C246.8,78.1,238,63,237.1,49.4c-1.4-20.3,13-37.4,34.7-38.4c12.3-0.7,24.3,4,32.9,12.8
			c7.4,7.7,12,17,14,28.2c0.1,0.3,0.4,0.5,0.7,0.5c0.3,0,0.6-0.3,0.6-0.6c0-2.5-0.2-5-0.6-7.4c-3.6-17.8-16.5-32.4-34.6-39.1
			c-18.1-6.7-34.8-3.5-50,7.3C210.4,30.1,212.3,67.3,239,82C247.8,86.9,262.2,89.4,271.7,84.5z"/>
	</g>
	<g>
		<g>
			<path class="st0" d="M433.4,136.5L433.4,136.5c0-7.1,5.3-12.8,12.8-12.8c4.6,0,7.4,1.5,9.7,3.8l-3.4,4c-1.9-1.7-3.8-2.8-6.3-2.8
				c-4.2,0-7.1,3.4-7.1,7.7v0.1c0,4.2,2.9,7.7,7.1,7.7c2.8,0,4.5-1.1,6.5-2.9l3.4,3.5c-2.5,2.7-5.3,4.4-10.1,4.4
				C438.8,149.2,433.4,143.6,433.4,136.5z"/>
			<path class="st0" d="M457.9,143.3L457.9,143.3c0-4.2,3.1-6.1,7.6-6.1c1.9,0,3.3,0.3,4.6,0.8v-0.3c0-2.2-1.4-3.4-4-3.4
				c-2,0-3.5,0.4-5.2,1l-1.3-4.1c2.1-0.9,4.1-1.5,7.3-1.5c2.9,0,5,0.8,6.4,2.1c1.4,1.4,2,3.5,2,6v10.9h-5.2v-2
				c-1.3,1.4-3.1,2.4-5.7,2.4C460.8,149.1,457.9,147.1,457.9,143.3z M470.2,142.1v-0.9c-0.9-0.4-2.1-0.7-3.4-0.7
				c-2.3,0-3.7,0.9-3.7,2.6v0.1c0,1.4,1.2,2.3,2.9,2.3C468.5,145.4,470.2,144.1,470.2,142.1z"/>
			<path class="st0" d="M479,129.9h5.3v2.7c1.2-1.6,2.8-3,5.5-3c4,0,6.4,2.7,6.4,7v12.2h-5.3v-10.5c0-2.5-1.2-3.8-3.2-3.8
				c-2,0-3.3,1.3-3.3,3.8v10.5H479V129.9z"/>
			<path class="st0" d="M498.9,143.3L498.9,143.3c0-4.2,3.1-6.1,7.6-6.1c1.9,0,3.3,0.3,4.6,0.8v-0.3c0-2.2-1.4-3.4-4-3.4
				c-2,0-3.5,0.4-5.2,1l-1.3-4.1c2.1-0.9,4.1-1.5,7.3-1.5c2.9,0,5,0.8,6.4,2.1c1.4,1.4,2,3.5,2,6v10.9h-5.2v-2
				c-1.3,1.4-3.1,2.4-5.7,2.4C501.8,149.1,498.9,147.1,498.9,143.3z M511.2,142.1v-0.9c-0.9-0.4-2.1-0.7-3.4-0.7
				c-2.3,0-3.7,0.9-3.7,2.6v0.1c0,1.4,1.2,2.3,2.9,2.3C509.5,145.4,511.2,144.1,511.2,142.1z"/>
			<path class="st0" d="M519.1,139.4L519.1,139.4c0-6.4,4.1-9.8,8.6-9.8c2.8,0,4.6,1.3,5.9,2.8v-9.3h5.3v25.7h-5.3v-2.7
				c-1.3,1.8-3.1,3.1-5.9,3.1C523.3,149.1,519.1,145.7,519.1,139.4z M533.6,139.4L533.6,139.4c0-3.2-2.1-5.3-4.6-5.3
				c-2.5,0-4.6,2-4.6,5.2v0.1c0,3.1,2.1,5.2,4.6,5.2C531.6,144.6,533.6,142.5,533.6,139.4z"/>
			<path class="st0" d="M541.7,143.3L541.7,143.3c0-4.2,3.1-6.1,7.6-6.1c1.9,0,3.3,0.3,4.6,0.8v-0.3c0-2.2-1.4-3.4-4-3.4
				c-2,0-3.5,0.4-5.2,1l-1.3-4.1c2.1-0.9,4.1-1.5,7.3-1.5c2.9,0,5,0.8,6.4,2.1c1.4,1.4,2,3.5,2,6v10.9h-5.2v-2
				c-1.3,1.4-3.1,2.4-5.7,2.4C544.6,149.1,541.7,147.1,541.7,143.3z M554,142.1v-0.9c-0.9-0.4-2.1-0.7-3.4-0.7
				c-2.3,0-3.7,0.9-3.7,2.6v0.1c0,1.4,1.2,2.3,2.9,2.3C552.3,145.4,554,144.1,554,142.1z"/>
			<path class="st0" d="M573,124.1h18.7v4.9h-13.3v5.2h11.7v4.9h-11.7v9.5H573V124.1z"/>
			<path class="st0" d="M593.2,139.4L593.2,139.4c0-5.5,4.4-9.9,10.2-9.9c5.8,0,10.2,4.3,10.2,9.7v0.1c0,5.4-4.4,9.8-10.2,9.8
				C597.5,149.2,593.2,144.9,593.2,139.4z M608.3,139.4L608.3,139.4c0-2.8-2-5.3-5-5.3c-3.1,0-4.9,2.4-4.9,5.1v0.1
				c0,2.8,2,5.2,5,5.2C606.5,144.6,608.3,142.2,608.3,139.4z"/>
			<path class="st0" d="M616.4,142.1v-12.2h5.3v10.5c0,2.5,1.2,3.8,3.2,3.8s3.3-1.3,3.3-3.8v-10.5h5.3v18.9h-5.3v-2.7
				c-1.2,1.6-2.8,3-5.5,3C618.8,149.1,616.4,146.4,616.4,142.1z"/>
			<path class="st0" d="M637.6,129.9h5.3v2.7c1.2-1.6,2.8-3,5.5-3c4,0,6.4,2.7,6.4,7v12.2h-5.3v-10.5c0-2.5-1.2-3.8-3.2-3.8
				c-2,0-3.3,1.3-3.3,3.8v10.5h-5.3V129.9z"/>
			<path class="st0" d="M657.8,139.4L657.8,139.4c0-6.4,4.1-9.8,8.6-9.8c2.8,0,4.6,1.3,5.9,2.8v-9.3h5.3v25.7h-5.3v-2.7
				c-1.3,1.8-3.1,3.1-5.9,3.1C662,149.1,657.8,145.7,657.8,139.4z M672.3,139.4L672.3,139.4c0-3.2-2.1-5.3-4.6-5.3
				c-2.5,0-4.6,2-4.6,5.2v0.1c0,3.1,2.1,5.2,4.6,5.2C670.2,144.6,672.3,142.5,672.3,139.4z"/>
			<path class="st0" d="M680.4,143.3L680.4,143.3c0-4.2,3.1-6.1,7.6-6.1c1.9,0,3.3,0.3,4.6,0.8v-0.3c0-2.2-1.4-3.4-4-3.4
				c-2,0-3.5,0.4-5.2,1l-1.3-4.1c2.1-0.9,4.1-1.5,7.3-1.5c2.9,0,5,0.8,6.4,2.1c1.4,1.4,2,3.5,2,6v10.9h-5.2v-2
				c-1.3,1.4-3.1,2.4-5.7,2.4C683.3,149.1,680.4,147.1,680.4,143.3z M692.7,142.1v-0.9c-0.9-0.4-2.1-0.7-3.4-0.7
				c-2.3,0-3.7,0.9-3.7,2.6v0.1c0,1.4,1.2,2.3,2.9,2.3C691,145.4,692.7,144.1,692.7,142.1z"/>
			<path class="st0" d="M702.1,143.4v-8.9h-2.3v-4.6h2.3v-4.8h5.3v4.8h4.4v4.6h-4.4v8.1c0,1.2,0.5,1.8,1.7,1.8c1,0,1.9-0.2,2.6-0.7
				v4.3c-1.1,0.7-2.4,1.1-4.2,1.1C704.4,149.1,702.1,147.8,702.1,143.4z"/>
			<path class="st0" d="M715.1,123.1h5.6v4.7h-5.6V123.1z M715.2,129.9h5.3v18.9h-5.3V129.9z"/>
			<path class="st0" d="M723.8,139.4L723.8,139.4c0-5.5,4.4-9.9,10.2-9.9c5.8,0,10.2,4.3,10.2,9.7v0.1c0,5.4-4.4,9.8-10.2,9.8
				C728.1,149.2,723.8,144.9,723.8,139.4z M738.9,139.4L738.9,139.4c0-2.8-2-5.3-5-5.3c-3.1,0-4.9,2.4-4.9,5.1v0.1
				c0,2.8,2,5.2,5,5.2C737.1,144.6,738.9,142.2,738.9,139.4z"/>
			<path class="st0" d="M747.2,129.9h5.3v2.7c1.2-1.6,2.8-3,5.5-3c4,0,6.4,2.7,6.4,7v12.2h-5.3v-10.5c0-2.5-1.2-3.8-3.2-3.8
				c-2,0-3.3,1.3-3.3,3.8v10.5h-5.3V129.9z"/>
			<path class="st0" d="M434.9,169.9h-2.2v-4.4h2.2v-1.2c0-2.1,0.5-3.6,1.5-4.6c1-1,2.4-1.5,4.3-1.5c1.7,0,2.8,0.2,3.8,0.5v4.4
				c-0.8-0.3-1.5-0.5-2.4-0.5c-1.2,0-1.9,0.6-1.9,2v0.7h4.3v4.4h-4.3v14.3h-5.3V169.9z"/>
			<path class="st0" d="M445.3,174.8L445.3,174.8c0-5.5,4.4-9.9,10.2-9.9c5.8,0,10.2,4.3,10.2,9.7v0.1c0,5.4-4.4,9.8-10.2,9.8
				C449.6,184.6,445.3,180.3,445.3,174.8z M460.4,174.8L460.4,174.8c0-2.8-2-5.3-5-5.3c-3.1,0-4.9,2.4-4.9,5.1v0.1
				c0,2.8,2,5.2,5,5.2C458.6,180,460.4,177.6,460.4,174.8z"/>
			<path class="st0" d="M468.6,165.3h5.3v3.8c1.1-2.6,2.8-4.3,6-4.2v5.6h-0.3c-3.6,0-5.7,2.1-5.7,6.6v7h-5.3V165.3z"/>
			<path class="st0" d="M492.9,159.5h5.4v24.6h-5.4V159.5z"/>
			<path class="st0" d="M503.1,165.3h5.3v2.7c1.2-1.6,2.8-3,5.5-3c4,0,6.4,2.7,6.4,7v12.2H515v-10.5c0-2.5-1.2-3.8-3.2-3.8
				c-2,0-3.3,1.3-3.3,3.8v10.5h-5.3V165.3z"/>
			<path class="st0" d="M524.1,165.3h5.3v2.7c1.2-1.6,2.8-3,5.5-3c4,0,6.4,2.7,6.4,7v12.2H536v-10.5c0-2.5-1.2-3.8-3.2-3.8
				c-2,0-3.3,1.3-3.3,3.8v10.5h-5.3V165.3z"/>
			<path class="st0" d="M544.2,174.8L544.2,174.8c0-5.5,4.4-9.9,10.2-9.9c5.8,0,10.2,4.3,10.2,9.7v0.1c0,5.4-4.4,9.8-10.2,9.8
				C548.6,184.6,544.2,180.3,544.2,174.8z M559.4,174.8L559.4,174.8c0-2.8-2-5.3-5-5.3c-3.1,0-4.9,2.4-4.9,5.1v0.1
				c0,2.8,2,5.2,5,5.2C557.5,180,559.4,177.6,559.4,174.8z"/>
			<path class="st0" d="M564.9,165.3h5.7l4.2,12.6l4.3-12.6h5.6l-7.4,19h-4.9L564.9,165.3z"/>
			<path class="st0" d="M584.8,178.7L584.8,178.7c0-4.2,3.1-6.1,7.6-6.1c1.9,0,3.3,0.3,4.6,0.8v-0.3c0-2.2-1.4-3.4-4-3.4
				c-2,0-3.5,0.4-5.2,1l-1.3-4.1c2.1-0.9,4.1-1.5,7.3-1.5c2.9,0,5,0.8,6.4,2.1c1.4,1.4,2,3.5,2,6v10.9H597v-2
				c-1.3,1.4-3.1,2.4-5.7,2.4C587.7,184.5,584.8,182.5,584.8,178.7z M597.1,177.5v-0.9c-0.9-0.4-2.1-0.7-3.4-0.7
				c-2.3,0-3.7,0.9-3.7,2.6v0.1c0,1.4,1.2,2.3,2.9,2.3C595.4,180.8,597.1,179.5,597.1,177.5z"/>
			<path class="st0" d="M606.6,178.8v-8.9h-2.3v-4.6h2.3v-4.8h5.3v4.8h4.4v4.6h-4.4v8.1c0,1.2,0.5,1.8,1.7,1.8c1,0,1.9-0.2,2.6-0.7
				v4.3c-1.1,0.7-2.4,1.1-4.2,1.1C608.8,184.5,606.6,183.2,606.6,178.8z"/>
			<path class="st0" d="M619.5,158.5h5.6v4.7h-5.6V158.5z M619.6,165.3h5.3v18.9h-5.3V165.3z"/>
			<path class="st0" d="M628.2,174.8L628.2,174.8c0-5.5,4.4-9.9,10.2-9.9c5.8,0,10.2,4.3,10.2,9.7v0.1c0,5.4-4.4,9.8-10.2,9.8
				C632.5,184.6,628.2,180.3,628.2,174.8z M643.3,174.8L643.3,174.8c0-2.8-2-5.3-5-5.3c-3.1,0-4.9,2.4-4.9,5.1v0.1
				c0,2.8,2,5.2,5,5.2C641.5,180,643.3,177.6,643.3,174.8z"/>
			<path class="st0" d="M651.6,165.3h5.3v2.7c1.2-1.6,2.8-3,5.5-3c4,0,6.4,2.7,6.4,7v12.2h-5.3v-10.5c0-2.5-1.2-3.8-3.2-3.8
				c-2,0-3.3,1.3-3.3,3.8v10.5h-5.3V165.3z"/>
		</g>
		<g>
			<path class="st0" d="M6.7,123.2h18.7v4.9H12.1v5.2h11.7v4.9H12.1v9.5H6.7V123.2z"/>
			<path class="st0" d="M26.9,138.5L26.9,138.5c0-5.5,4.4-9.9,10.2-9.9c5.8,0,10.2,4.3,10.2,9.7v0.1c0,5.4-4.4,9.8-10.2,9.8
				C31.2,148.2,26.9,143.9,26.9,138.5z M42,138.5L42,138.5c0-2.8-2-5.3-5-5.3c-3.1,0-4.9,2.4-4.9,5.1v0.1c0,2.8,2,5.2,5,5.2
				C40.2,143.6,42,141.3,42,138.5z"/>
			<path class="st0" d="M50.3,129h5.3v2.7c1.2-1.6,2.8-3,5.5-3c4,0,6.4,2.7,6.4,7v12.2h-5.3v-10.5c0-2.5-1.2-3.8-3.2-3.8
				c-2,0-3.3,1.3-3.3,3.8v10.5h-5.3V129z"/>
			<path class="st0" d="M70.5,138.4L70.5,138.4c0-6.4,4.1-9.8,8.6-9.8c2.8,0,4.6,1.3,5.9,2.8v-9.3h5.3v25.7H85v-2.7
				c-1.3,1.8-3.1,3.1-5.9,3.1C74.7,148.2,70.5,144.7,70.5,138.4z M85,138.4L85,138.4c0-3.2-2.1-5.3-4.6-5.3c-2.5,0-4.6,2-4.6,5.2
				v0.1c0,3.1,2.1,5.2,4.6,5.2C82.9,143.6,85,141.5,85,138.4z"/>
			<path class="st0" d="M93.1,142.4L93.1,142.4c0-4.2,3.1-6.1,7.6-6.1c1.9,0,3.3,0.3,4.6,0.8v-0.3c0-2.2-1.4-3.4-4-3.4
				c-2,0-3.5,0.4-5.2,1l-1.3-4.1c2.1-0.9,4.1-1.5,7.3-1.5c2.9,0,5,0.8,6.4,2.1c1.4,1.4,2,3.5,2,6v10.9h-5.2v-2
				c-1.3,1.4-3.1,2.4-5.7,2.4C96,148.2,93.1,146.1,93.1,142.4z M105.4,141.2v-0.9c-0.9-0.4-2.1-0.7-3.4-0.7c-2.3,0-3.7,0.9-3.7,2.6
				v0.1c0,1.4,1.2,2.3,2.9,2.3C103.7,144.5,105.4,143.1,105.4,141.2z"/>
			<path class="st0" d="M114.8,142.5v-8.9h-2.3V129h2.3v-4.8h5.3v4.8h4.4v4.6h-4.4v8.1c0,1.2,0.5,1.8,1.7,1.8c1,0,1.9-0.2,2.6-0.7
				v4.3c-1.1,0.7-2.4,1.1-4.2,1.1C117.1,148.1,114.8,146.8,114.8,142.5z"/>
			<path class="st0" d="M127.8,122.1h5.6v4.7h-5.6V122.1z M127.9,129h5.3v18.9h-5.3V129z"/>
			<path class="st0" d="M136.5,138.5L136.5,138.5c0-5.5,4.4-9.9,10.2-9.9c5.8,0,10.2,4.3,10.2,9.7v0.1c0,5.4-4.4,9.8-10.2,9.8
				C140.8,148.2,136.5,143.9,136.5,138.5z M151.6,138.5L151.6,138.5c0-2.8-2-5.3-5-5.3c-3.1,0-4.9,2.4-4.9,5.1v0.1
				c0,2.8,2,5.2,5,5.2C149.8,143.6,151.6,141.3,151.6,138.5z"/>
			<path class="st0" d="M159.9,129h5.3v2.7c1.2-1.6,2.8-3,5.5-3c4,0,6.4,2.7,6.4,7v12.2h-5.3v-10.5c0-2.5-1.2-3.8-3.2-3.8
				s-3.3,1.3-3.3,3.8v10.5h-5.3V129z"/>
			<path class="st0" d="M189.7,138.5L189.7,138.5c0-5.5,4.1-9.9,9.9-9.9c3.6,0,5.8,1.2,7.5,3.2l-3.3,3.5c-1.2-1.3-2.4-2.1-4.3-2.1
				c-2.7,0-4.6,2.4-4.6,5.1v0.1c0,2.9,1.9,5.2,4.8,5.2c1.8,0,3-0.8,4.3-2l3.1,3.2c-1.8,2-3.9,3.4-7.7,3.4
				C193.8,148.2,189.7,143.9,189.7,138.5z"/>
			<path class="st0" d="M208.7,142.4L208.7,142.4c0-4.2,3.1-6.1,7.6-6.1c1.9,0,3.3,0.3,4.6,0.8v-0.3c0-2.2-1.4-3.4-4-3.4
				c-2,0-3.5,0.4-5.2,1l-1.3-4.1c2.1-0.9,4.1-1.5,7.3-1.5c2.9,0,5,0.8,6.4,2.1c1.4,1.4,2,3.5,2,6v10.9h-5.2v-2
				c-1.3,1.4-3.1,2.4-5.7,2.4C211.6,148.2,208.7,146.1,208.7,142.4z M221,141.2v-0.9c-0.9-0.4-2.1-0.7-3.4-0.7
				c-2.3,0-3.7,0.9-3.7,2.6v0.1c0,1.4,1.2,2.3,2.9,2.3C219.3,144.5,221,143.1,221,141.2z"/>
			<path class="st0" d="M229.8,129h5.3v2.7c1.2-1.6,2.8-3,5.5-3c4,0,6.4,2.7,6.4,7v12.2h-5.3v-10.5c0-2.5-1.2-3.8-3.2-3.8
				s-3.3,1.3-3.3,3.8v10.5h-5.3V129z"/>
			<path class="st0" d="M249.7,142.4L249.7,142.4c0-4.2,3.1-6.1,7.6-6.1c1.9,0,3.3,0.3,4.6,0.8v-0.3c0-2.2-1.4-3.4-4-3.4
				c-2,0-3.5,0.4-5.2,1l-1.3-4.1c2.1-0.9,4.1-1.5,7.3-1.5c2.9,0,5,0.8,6.4,2.1c1.4,1.4,2,3.5,2,6v10.9h-5.2v-2
				c-1.3,1.4-3.1,2.4-5.7,2.4C252.6,148.2,249.7,146.1,249.7,142.4z M261.9,141.2v-0.9c-0.9-0.4-2.1-0.7-3.4-0.7
				c-2.3,0-3.7,0.9-3.7,2.6v0.1c0,1.4,1.2,2.3,2.9,2.3C260.2,144.5,261.9,143.1,261.9,141.2z"/>
			<path class="st0" d="M269.9,138.4L269.9,138.4c0-6.4,4.1-9.8,8.6-9.8c2.8,0,4.6,1.3,5.9,2.8v-9.3h5.3v25.7h-5.3v-2.7
				c-1.3,1.8-3.1,3.1-5.9,3.1C274.1,148.2,269.9,144.7,269.9,138.4z M284.4,138.4L284.4,138.4c0-3.2-2.1-5.3-4.6-5.3
				c-2.5,0-4.6,2-4.6,5.2v0.1c0,3.1,2.1,5.2,4.6,5.2C282.3,143.6,284.4,141.5,284.4,138.4z"/>
			<path class="st0" d="M293.7,122.1h5.6v4.7h-5.6V122.1z M293.8,129h5.3v18.9h-5.3V129z"/>
			<path class="st0" d="M302.4,138.5L302.4,138.5c0-5.5,3.8-9.9,9.3-9.9c6.3,0,9.2,4.9,9.2,10.2c0,0.4,0,0.9-0.1,1.4h-13.1
				c0.5,2.4,2.2,3.7,4.6,3.7c1.8,0,3.1-0.6,4.6-1.9l3.1,2.7c-1.8,2.2-4.3,3.5-7.7,3.5C306.6,148.2,302.4,144.3,302.4,138.5z
				 M315.7,136.9c-0.3-2.4-1.7-4-4-4c-2.2,0-3.7,1.6-4.1,4H315.7z"/>
			<path class="st0" d="M324,129h5.3v2.7c1.2-1.6,2.8-3,5.5-3c4,0,6.4,2.7,6.4,7v12.2h-5.3v-10.5c0-2.5-1.2-3.8-3.2-3.8
				s-3.3,1.3-3.3,3.8v10.5H324V129z"/>
			<path class="st0" d="M345,129h5.3v2.7c1.2-1.6,2.8-3,5.5-3c4,0,6.4,2.7,6.4,7v12.2H357v-10.5c0-2.5-1.2-3.8-3.2-3.8
				s-3.3,1.3-3.3,3.8v10.5H345V129z"/>
			<path class="st0" d="M365.2,138.5L365.2,138.5c0-5.5,3.8-9.9,9.3-9.9c6.3,0,9.2,4.9,9.2,10.2c0,0.4,0,0.9-0.1,1.4h-13.1
				c0.5,2.4,2.2,3.7,4.6,3.7c1.8,0,3.1-0.6,4.6-1.9l3.1,2.7c-1.8,2.2-4.3,3.5-7.7,3.5C369.3,148.2,365.2,144.3,365.2,138.5z
				 M378.5,136.9c-0.3-2.4-1.7-4-4-4c-2.2,0-3.7,1.6-4.1,4H378.5z"/>
			<path class="st0" d="M6.2,164.4h5.3v2.7c1.3-1.8,3.1-3.1,5.9-3.1c4.4,0,8.6,3.4,8.6,9.7v0.1c0,6.3-4.1,9.7-8.6,9.7
				c-2.8,0-4.6-1.3-5.9-2.8v8.1H6.2V164.4z M20.6,173.8L20.6,173.8c0-3.2-2.1-5.3-4.6-5.3c-2.5,0-4.6,2.1-4.6,5.2v0.1
				c0,3.1,2.1,5.2,4.6,5.2C18.5,179,20.6,177,20.6,173.8z"/>
			<path class="st0" d="M28.1,173.9L28.1,173.9c0-5.5,4.4-9.9,10.2-9.9c5.8,0,10.2,4.3,10.2,9.7v0.1c0,5.4-4.4,9.8-10.2,9.8
				C32.4,183.6,28.1,179.3,28.1,173.9z M43.2,173.9L43.2,173.9c0-2.8-2-5.3-5-5.3c-3.1,0-4.9,2.4-4.9,5.1v0.1c0,2.8,2,5.2,5,5.2
				C41.4,179,43.2,176.7,43.2,173.9z"/>
			<path class="st0" d="M51.4,176.6v-12.2h5.3v10.5c0,2.5,1.2,3.8,3.2,3.8s3.3-1.3,3.3-3.8v-10.5h5.3v18.9h-5.3v-2.7
				c-1.2,1.6-2.8,3-5.5,3C53.7,183.6,51.4,180.9,51.4,176.6z"/>
			<path class="st0" d="M72.5,164.4h5.3v3.8c1.1-2.6,2.8-4.3,6-4.2v5.6h-0.3c-3.6,0-5.7,2.1-5.7,6.6v7h-5.3V164.4z"/>
			<path class="st0" d="M96.3,157.5h5.3v25.7h-5.3V157.5z"/>
			<path class="st0" d="M104.5,167.7c2.4-0.2,3.6-1.5,3.4-3.5h-2.2v-5.6h5.7v4.7c0,4.6-2.3,6.5-6.5,6.6L104.5,167.7z"/>
			<path class="st0" d="M115.1,157.5h5.6v4.7h-5.6V157.5z M115.2,164.4h5.3v18.9h-5.3V164.4z"/>
			<path class="st0" d="M124.7,164.4h5.3v2.7c1.2-1.6,2.8-3,5.5-3c4,0,6.4,2.7,6.4,7v12.2h-5.3v-10.5c0-2.5-1.2-3.8-3.2-3.8
				s-3.3,1.3-3.3,3.8v10.5h-5.3V164.4z"/>
			<path class="st0" d="M145.7,164.4h5.3v2.7c1.2-1.6,2.8-3,5.5-3c4,0,6.4,2.7,6.4,7v12.2h-5.3v-10.5c0-2.5-1.2-3.8-3.2-3.8
				s-3.3,1.3-3.3,3.8v10.5h-5.3V164.4z"/>
			<path class="st0" d="M165.8,173.9L165.8,173.9c0-5.5,4.4-9.9,10.2-9.9c5.8,0,10.2,4.3,10.2,9.7v0.1c0,5.4-4.4,9.8-10.2,9.8
				C170.2,183.6,165.8,179.3,165.8,173.9z M181,173.9L181,173.9c0-2.8-2-5.3-5-5.3c-3.1,0-4.9,2.4-4.9,5.1v0.1c0,2.8,2,5.2,5,5.2
				C179.1,179,181,176.7,181,173.9z"/>
			<path class="st0" d="M186.5,164.4h5.7l4.2,12.6l4.3-12.6h5.6l-7.4,19h-4.9L186.5,164.4z"/>
			<path class="st0" d="M206.4,177.8L206.4,177.8c0-4.2,3.1-6.1,7.6-6.1c1.9,0,3.3,0.3,4.6,0.8v-0.3c0-2.2-1.4-3.4-4-3.4
				c-2,0-3.5,0.4-5.2,1l-1.3-4.1c2.1-0.9,4.1-1.5,7.3-1.5c2.9,0,5,0.8,6.4,2.1c1.4,1.4,2,3.5,2,6v10.9h-5.2v-2
				c-1.3,1.4-3.1,2.4-5.7,2.4C209.3,183.6,206.4,181.5,206.4,177.8z M218.7,176.6v-0.9c-0.9-0.4-2.1-0.7-3.4-0.7
				c-2.3,0-3.7,0.9-3.7,2.6v0.1c0,1.4,1.2,2.3,2.9,2.3C217,179.9,218.7,178.5,218.7,176.6z"/>
			<path class="st0" d="M228.2,177.9v-8.9h-2.3v-4.6h2.3v-4.8h5.3v4.8h4.4v4.6h-4.4v8.1c0,1.2,0.5,1.8,1.7,1.8c1,0,1.9-0.2,2.6-0.7
				v4.3c-1.1,0.7-2.4,1.1-4.2,1.1C230.4,183.5,228.2,182.2,228.2,177.9z"/>
			<path class="st0" d="M241.1,157.5h5.6v4.7h-5.6V157.5z M241.3,164.4h5.3v18.9h-5.3V164.4z"/>
			<path class="st0" d="M249.8,173.9L249.8,173.9c0-5.5,4.4-9.9,10.2-9.9c5.8,0,10.2,4.3,10.2,9.7v0.1c0,5.4-4.4,9.8-10.2,9.8
				C254.2,183.6,249.8,179.3,249.8,173.9z M265,173.9L265,173.9c0-2.8-2-5.3-5-5.3c-3.1,0-4.9,2.4-4.9,5.1v0.1c0,2.8,2,5.2,5,5.2
				C263.1,179,265,176.7,265,173.9z"/>
			<path class="st0" d="M273.2,164.4h5.3v2.7c1.2-1.6,2.8-3,5.5-3c4,0,6.4,2.7,6.4,7v12.2h-5.3v-10.5c0-2.5-1.2-3.8-3.2-3.8
				c-2,0-3.3,1.3-3.3,3.8v10.5h-5.3V164.4z"/>
		</g>
	</g>
</g>
</svg>
