<?xml version="1.0" encoding="UTF-8"?>
<svg width="288px" height="89px" viewBox="0 0 288 89" version="1.1" xmlns="http://www.w3.org/2000/svg" xmlns:xlink="http://www.w3.org/1999/xlink">
    <title>715DA3D0-11D6-4F94-A368-19294161F376</title>
    <g id="Styles" stroke="none" stroke-width="1" fill="none" fill-rule="evenodd">
        <g id="Nav-components" transform="translate(-80.000000, -645.000000)" fill-rule="nonzero">
            <g id="Footer" transform="translate(0.000000, 575.000000)">
                <g id="Health-Research-BC-logo-reverse" transform="translate(80.000000, 70.000000)">
                    <g id="Logo_main" transform="translate(0.000000, 4.334448)">
                        <polygon id="Path" fill="#9D1D96" points="0 42.3812709 37.5652174 42.3812709 0 79.9464883"></polygon>
                        <polygon id="Path" fill="#882073" points="74.6488294 79.9464883 37.083612 42.3812709 74.6488294 42.3812709"></polygon>
                        <polygon id="Path" fill="#9D1D96" points="0 5.29765886 37.5652174 5.29765886 37.5652174 42.8628763"></polygon>
                        <polygon id="Path" fill="#882073" points="37.5652174 42.3812709 37.5652174 79.9464883 0 79.9464883"></polygon>
                        <polygon id="Path" fill="#6A195A" points="74.6488294 79.9464883 37.083612 79.9464883 37.083612 42.3812709"></polygon>
                        <polygon id="Path" fill="#882073" points="0 5.29765886 37.5652174 42.8628763 0 42.8628763"></polygon>
                        <polygon id="Path" fill="#0069A7" points="79.4648829 37.5652174 41.8996656 0 79.4648829 0"></polygon>
                        <path d="M99.2107023,6.74247492 L100.341663,6.74247492 L102.829777,13.8668554 C103.138221,14.7669229 103.460374,15.639296 103.768817,16.5532107 L103.844215,16.5532107 C104.145804,15.639296 104.433685,14.7669229 104.742129,13.8668554 L107.230243,6.74247492 L108.361204,6.74247492 L108.361204,18.7826087 L107.60723,18.7826087 L107.60723,10.7650843 C107.60723,9.79578084 107.682627,8.53568633 107.716899,7.53176488 L107.641502,7.53176488 L106.723024,10.238891 L104.145804,17.4671254 L103.460374,17.4671254 L100.862591,10.2181202 L99.8961332,7.51099409 L99.8207358,7.51099409 C99.8618616,8.51491554 99.9304047,9.77501005 99.9304047,10.7443135 L99.9304047,18.7826087 L99.2449739,18.7826087 L99.2107023,6.74247492 Z" id="Path" fill="#FFFFFF"></path>
                        <path d="M111.754154,7.1230944 C111.681023,6.84291751 111.796378,6.54855258 112.043725,6.38416229 C112.291072,6.21977199 112.618627,6.21977199 112.865974,6.38416229 C113.113321,6.54855258 113.228676,6.84291751 113.155545,7.1230944 C113.228676,7.4032713 113.113321,7.69763622 112.865974,7.86202652 C112.618627,8.02641682 112.291072,8.02641682 112.043725,7.86202652 C111.796378,7.69763622 111.681023,7.4032713 111.754154,7.1230944 Z M112.057548,10.0015587 L112.837704,10.0015587 L112.837704,18.7826087 L112.057548,18.7826087 L112.057548,10.0015587 Z" id="Shape" fill="#FFFFFF"></path>
                        <path d="M115.585284,14.2281309 C115.585284,11.3179434 117.44241,9.63237388 119.55593,9.63237388 C120.528585,9.6203547 121.46153,10.0148241 122.126802,10.7193943 L121.704098,11.1941057 C121.149878,10.6177989 120.379213,10.2962914 119.576719,10.3066017 C117.7681,10.3066017 116.368326,11.9027329 116.368326,14.2281309 C116.368326,16.5535289 117.643368,18.1083809 119.576719,18.1083809 C120.460054,18.0920905 121.305349,17.748545 121.946633,17.1451983 L122.327759,17.6199097 C121.595826,18.3573005 120.598669,18.7755777 119.55593,18.7826087 C117.296889,18.7826087 115.585284,17.1107989 115.585284,14.2281309 Z" id="Path" fill="#FFFFFF"></path>
                        <path d="M123.772575,5.29765886 L124.55726,5.29765886 L124.55726,9.23668368 L124.55726,11.2168421 C125.53085,10.279993 126.489909,9.57025876 127.746857,9.57025876 C129.635913,9.57025876 130.51505,10.6916388 130.51505,13.0124696 L130.51505,18.7826087 L129.737631,18.7826087 L129.737631,13.1047351 C129.737631,11.1955501 129.105524,10.2657983 127.616077,10.2657983 C126.50444,10.2657983 125.705224,10.840683 124.579057,11.983355 L124.579057,18.7826087 L123.794372,18.7826087 L123.772575,5.29765886 Z" id="Path" fill="#FFFFFF"></path>
                        <path d="M132.923077,16.4124755 C132.923077,14.4752274 134.775804,13.5684304 138.85907,13.1356409 C138.85907,11.761706 138.495791,10.3259441 136.679391,10.3259441 C135.618181,10.3581673 134.593247,10.6987853 133.744089,11.3014379 L133.38081,10.7587336 C134.353435,10.0562337 135.535779,9.66195847 136.759313,9.63210702 C138.938992,9.63210702 139.665552,11.1365657 139.665552,12.963899 L139.665552,18.5489442 L138.997117,18.5489442 L138.902664,17.4085783 L138.866336,17.4085783 C137.972392,18.2032648 136.819719,18.6876473 135.596817,18.7825612 C134.121901,18.7893828 132.923077,18.0611973 132.923077,16.4124755 Z M138.85907,16.7216108 L138.85907,13.7126935 C135.022835,14.145483 133.722293,14.9629742 133.722293,16.3781271 C133.675733,16.8807496 133.873108,17.3761664 134.25882,17.7248294 C134.644532,18.0734925 135.176839,18.2376683 135.705801,18.1711121 C136.759313,18.1711121 137.696575,17.6490169 138.85907,16.7216108 L138.85907,16.7216108 Z" id="Shape" fill="#FFFFFF"></path>
                        <path d="M141.591973,14.2168163 C141.591973,11.3685313 143.469513,9.63210702 145.445134,9.63210702 C147.546857,9.63210702 148.814897,11.0802712 148.814897,13.6540226 C148.819985,13.8719155 148.808275,14.0898738 148.779869,14.3060397 L142.383623,14.3060397 C142.383623,16.5160343 143.728726,18.1083285 145.739375,18.1083285 C146.590545,18.1225156 147.426052,17.8831813 148.13534,17.4219948 L148.443593,17.9298817 C147.630908,18.5086626 146.645651,18.8078837 145.641294,18.7809355 C143.420473,18.7603455 141.591973,17.0582379 141.591973,14.2168163 Z M148.100311,13.6540226 C148.100311,11.4097114 147.049449,10.2841241 145.445134,10.2841241 C143.840818,10.2841241 142.572778,11.5538414 142.383623,13.6540226 L148.100311,13.6540226 Z" id="Shape" fill="#FFFFFF"></path>
                        <path d="M151.22408,17.4141344 L151.22408,5.29765886 L152.128146,5.29765886 L152.128146,17.525807 C152.128146,17.9515587 152.330928,18.098129 152.643549,18.098129 C152.763202,18.0997722 152.882574,18.0880331 152.998416,18.0632313 L153.150502,18.6495123 C152.940238,18.7421781 152.704329,18.7878893 152.466115,18.7821235 C151.66344,18.7821235 151.22408,18.3563718 151.22408,17.4141344 Z" id="Path" fill="#FFFFFF"></path>
                        <path d="M158.448161,16.9472233 L158.928919,16.4122118 C159.797366,17.4555358 161.065431,18.0592125 162.402572,18.0658837 C164.217268,18.0658837 165.36161,17.0583945 165.36161,15.592324 C165.36161,14.1262536 164.400092,13.5703975 163.242207,13.0423342 L161.474911,12.2154982 C160.459223,11.7430205 159.084658,11.0065112 159.084658,9.21387523 C159.084658,7.42123928 160.526935,6.26086957 162.470285,6.26086957 C163.701757,6.25715157 164.880155,6.77501799 165.727257,7.69221914 L165.280355,8.22028244 C164.556528,7.4175857 163.535996,6.96590145 162.470285,6.9765544 C160.906125,6.9765544 159.84981,7.83813136 159.84981,9.17218602 C159.84981,10.5062407 161.028008,11.138527 161.881186,11.5206781 L163.682339,12.347514 C164.982419,12.9520075 166.153846,13.6815687 166.153846,15.5367384 C166.153846,17.3919082 164.677713,18.7815485 162.416115,18.7815485 C160.892025,18.8130895 159.434945,18.1395032 158.448161,16.9472233 Z" id="Path" fill="#FFFFFF"></path>
                        <path d="M168.596646,9.85157725 L169.236468,9.85157725 L169.326878,11.2602573 L169.326878,11.2602573 C169.993043,10.3538738 171.000128,9.76740532 172.108714,9.64027525 C173.257655,9.54243518 174.296119,10.3335026 174.521956,11.4786027 C175.523417,10.3446153 176.49706,9.64027525 177.505476,9.64027525 C179.237168,9.64027525 180.120401,10.7531325 180.120401,13.0563243 L180.120401,18.7826087 L179.369306,18.7826087 L179.369306,13.1478885 C179.369306,11.2532139 178.743393,10.3305285 177.373338,10.3305285 C176.552697,10.3305285 175.690328,10.9010439 174.72364,12.0350313 L174.72364,18.7826087 L173.972544,18.7826087 L173.972544,13.1478885 C173.972544,11.2532139 173.332722,10.3305285 171.976577,10.3305285 C171.176799,10.3305285 170.30052,10.9010439 169.312969,12.0350313 L169.312969,18.7826087 L168.561873,18.7826087 L168.596646,9.85157725 Z" id="Path" fill="#FFFFFF"></path>
                        <path d="M183.02813,7.10958055 C182.962127,6.83117781 183.080137,6.54231442 183.32558,6.38148879 C183.571023,6.22066316 183.89386,6.22066316 184.139303,6.38148879 C184.384746,6.54231442 184.502756,6.83117781 184.436753,7.10958055 C184.502756,7.3879833 184.384746,7.67684669 184.139303,7.83767232 C183.89386,7.99849795 183.571023,7.99849795 183.32558,7.83767232 C183.080137,7.67684669 182.962127,7.3879833 183.02813,7.10958055 L183.02813,7.10958055 Z M183.331526,9.99138108 L184.111686,9.99138108 L184.111686,18.7826087 L183.331526,18.7826087 L183.331526,9.99138108 Z" id="Shape" fill="#FFFFFF"></path>
                        <path d="M187.728419,16.1365793 L187.728419,10.3755153 L186.381271,10.3755153 L186.381271,9.75250836 L187.728419,9.68250758 L187.815983,6.74247492 L188.435671,6.74247492 L188.435671,9.68250758 L190.914423,9.68250758 L190.914423,10.3825154 L188.435671,10.3825154 L188.435671,16.1925799 C188.435671,17.3405927 188.698365,18.1176013 189.890591,18.1176013 C190.265588,18.1102045 190.63408,18.0144661 190.968309,17.8375982 L191.197324,18.3766042 C190.768126,18.6260523 190.287764,18.7652558 189.796291,18.7826087 C188.193185,18.7826087 187.728419,17.7115968 187.728419,16.1365793 Z" id="Path" fill="#FFFFFF"></path>
                        <path d="M192.64214,5.29765886 L193.42598,5.29765886 L193.42598,9.23668368 L193.42598,11.2168421 C194.40578,10.279993 195.356549,9.57025876 196.619402,9.57025876 C198.506424,9.57025876 199.384615,10.6916388 199.384615,13.0124696 L199.384615,18.7826087 L198.600775,18.7826087 L198.600775,13.1047351 C198.600775,11.1955501 197.969349,10.2657983 196.481505,10.2657983 C195.378322,10.2657983 194.572709,10.840683 193.447754,11.983355 L193.447754,18.7826087 L192.663914,18.7826087 L192.64214,5.29765886 Z" id="Path" fill="#FFFFFF"></path>
                        <polygon id="Path" fill="#FFFFFF" points="99.2107023 25.5250836 103.698208 25.5250836 103.698208 35.3624358 113.505806 35.3624358 113.505806 25.5250836 117.993311 25.5250836 117.993311 50.0869565 113.505806 50.0869565 113.505806 39.26937 103.698208 39.26937 103.698208 50.0869565 99.2107023 50.0869565"></polygon>
                        <path d="M122.327759,40.9180215 C122.327759,34.9580995 126.573308,31.3043478 130.91792,31.3043478 C135.948896,31.3043478 138.701427,34.8816903 138.701427,40.0219493 C138.711674,40.7734967 138.635719,41.5237886 138.474998,42.2586566 L126.714827,42.2586566 C127.167685,45.3150269 129.13479,47.1210638 132.085446,47.1210638 C133.620423,47.1244212 135.122143,46.6821579 136.401755,45.8498917 L137.916001,48.6284101 C136.038072,49.9326062 133.78388,50.6118129 131.483994,50.5664267 C126.339803,50.5316952 122.327759,47.030762 122.327759,40.9180215 Z M134.738915,38.9800049 C134.738915,36.2987347 133.451098,34.7358181 131.031135,34.7358181 C128.90836,34.7358181 127.096926,36.2223254 126.714827,38.9800049 L134.738915,38.9800049 Z" id="Shape" fill="#FFFFFF"></path>
                        <path d="M141.115869,45.1889134 C141.115869,41.1543202 144.278081,39.1439798 151.702404,38.3231488 C151.626786,36.4519323 150.891228,34.8867883 148.464574,34.8867883 C146.654011,34.98915 144.904026,35.5826249 143.398161,36.6049685 L141.851427,33.697279 C144.053953,32.2077081 146.627595,31.3781986 149.27575,31.3043478 C153.757842,31.3043478 156.040134,34.1424755 156.040134,39.2552789 L156.040134,50.1138996 L152.506706,50.1138996 L152.142364,48.096603 L151.998002,48.096603 C150.37565,49.487842 148.615811,50.5590961 146.498503,50.5590961 C145.059225,50.6475483 143.650606,50.1129278 142.623821,49.0885174 C141.597035,48.0641071 141.048828,46.6464283 141.115869,45.1889134 L141.115869,45.1889134 Z M151.702404,45.1889134 L151.702404,41.3073565 C146.773478,41.9055893 145.309237,43.0255367 145.309237,44.889797 C145.309237,46.4549409 146.333519,47.0531737 147.804634,47.0531737 C149.27575,47.0531737 150.37565,46.4549409 151.702404,45.1889134 L151.702404,45.1889134 Z" id="Shape" fill="#FFFFFF"></path>
                        <path d="M160.856187,45.6551051 L160.856187,23.5986622 L165.39398,23.5986622 L165.39398,45.8831523 C165.39398,46.9948825 165.893423,47.3725858 166.350056,47.3725858 C166.590532,47.3840737 166.831319,47.3576185 167.063545,47.2941945 L167.598662,50.6222588 C166.851764,50.9418884 166.041299,51.0857469 165.229877,51.0427208 C162.047715,51.0427208 160.856187,48.9831693 160.856187,45.6551051 Z" id="Path" fill="#FFFFFF"></path>
                        <path d="M171.121856,43.8772714 L171.121856,35.2416818 L168.561873,35.2416818 L168.561873,31.9519334 L171.340892,31.7288996 L171.854257,26.006689 L175.440972,26.006689 L175.440972,31.7288996 L180.020192,31.7288996 L180.020192,35.2138026 L175.440972,35.2138026 L175.440972,43.8772714 C175.440972,46.010032 176.282891,47.0555029 177.96673,47.0555029 C178.608074,47.0586569 179.243513,46.9306717 179.835381,46.6791334 L180.602007,49.7876669 C179.426352,50.3123683 178.155138,50.5783768 176.87155,50.5682851 C172.661953,50.5682851 171.121856,47.87794 171.121856,43.8772714 Z" id="Path" fill="#FFFFFF"></path>
                        <path d="M183.973244,23.5986622 L188.453711,23.5986622 L188.453711,30.4253259 L188.270547,33.9225921 C189.778126,32.5236856 191.616808,31.1247791 194.145876,31.1247791 C198.13321,31.1247791 199.866221,33.8246686 199.866221,38.4830272 L199.866221,50.0869565 L195.428022,50.0869565 L195.428022,39.084557 C195.428022,36.0839026 194.561517,34.9927555 192.610119,34.9927555 C190.989824,34.9927555 189.93311,35.748165 188.460756,37.244995 L188.460756,50.0869565 L183.980289,50.0869565 L183.973244,23.5986622 Z" id="Path" fill="#FFFFFF"></path>
                        <path d="M99.2107023,55.8662207 L107.479059,55.8662207 C112.610901,55.8662207 116.538546,57.631878 116.538546,63.0525146 C116.538546,66.7006236 114.634233,68.9471992 111.714754,69.9227763 L117.511706,79.9464883 L112.533889,79.9464883 L107.297029,70.5823215 L103.663433,70.5823215 L103.663433,79.9464883 L99.2107023,79.9464883 L99.2107023,55.8662207 Z M107.051989,67.105969 C110.384536,67.105969 112.183831,65.7319167 112.183831,63.0525146 C112.183831,60.3731125 110.384536,59.363184 107.051989,59.363184 L103.684437,59.363184 L103.684437,67.105969 L107.051989,67.105969 Z" id="Shape" fill="#FFFFFF"></path>
                        <path d="M118.956522,70.7775533 C118.956522,64.8176313 123.202086,61.1638796 127.546713,61.1638796 C132.577707,61.1638796 135.330248,64.741222 135.330248,69.8884274 C135.340143,70.6376631 135.264189,71.3856154 135.103818,72.1181884 L123.350681,72.1181884 C123.803541,75.1745587 125.770652,76.9805956 128.72132,76.9805956 C130.253893,76.9825836 131.752959,76.5403785 133.030567,75.7094234 L134.544819,78.4879418 C132.666884,79.792138 130.412683,80.4713447 128.112789,80.4259584 C122.96858,80.391227 118.956522,76.8625086 118.956522,70.7775533 Z M131.374797,68.8395367 C131.374797,66.1582664 130.086976,64.5953498 127.667004,64.5953498 C125.544222,64.5953498 123.732782,66.0818572 123.357757,68.8395367 L131.374797,68.8395367 Z" id="Shape" fill="#FFFFFF"></path>
                        <path d="M137.257525,77.7476526 L139.173963,75.2483003 C140.592267,76.4681869 142.398589,77.1306423 144.261484,77.1141121 C146.177921,77.1141121 147.101672,76.2160161 147.101672,74.9837449 C147.101672,73.4521083 145.330001,72.8533777 143.303265,72.1084454 C140.683674,71.1407295 138.250212,69.609093 138.250212,66.6920216 C138.250212,63.4825468 140.835335,61.1642061 144.888807,61.1642061 C147.10672,61.1453699 149.255647,61.9421917 150.934547,63.405965 L149.052577,65.9122794 C147.893286,65.0040463 146.466312,64.5138705 144.999105,64.5198825 C143.192966,64.5198825 142.379514,65.4179785 142.379514,66.497086 C142.379514,67.840749 143.668629,68.3628978 145.957324,69.149602 C148.75615,70.1173179 151.22408,71.5793346 151.22408,74.7191895 C151.22408,77.8590444 148.721682,80.4280936 144.109823,80.4280936 C141.572983,80.4379838 139.125857,79.4807589 137.257525,77.7476526 L137.257525,77.7476526 Z" id="Path" fill="#FFFFFF"></path>
                        <path d="M153.632107,70.7775533 C153.632107,64.8176313 157.877671,61.1638796 162.222299,61.1638796 C167.253292,61.1638796 170.005833,64.741222 170.005833,69.8884274 C170.015729,70.6376631 169.939775,71.3856154 169.779403,72.1181884 L158.01919,72.1181884 C158.479126,75.1745587 160.446238,76.9805956 163.396905,76.9805956 C164.929478,76.9825836 166.428544,76.5403785 167.706153,75.7094234 L169.220404,78.4879418 C167.342469,79.792138 165.088268,80.4713447 162.788374,80.4259584 C157.644165,80.391227 153.632107,76.8625086 153.632107,70.7775533 Z M166.043307,68.8395367 C166.043307,66.1582664 164.755485,64.5953498 162.335514,64.5953498 C160.212732,64.5953498 158.401291,66.0818572 158.01919,68.8395367 L166.043307,68.8395367 Z" id="Shape" fill="#FFFFFF"></path>
                        <path d="M172.419593,75.0623852 C172.419593,71.027784 175.581937,69.0174396 183.006571,68.1966069 C182.93095,66.3323429 182.195361,64.7602397 179.768606,64.7602397 C177.959907,64.861816 176.210805,65.4501651 174.701981,66.4645109 L173.155182,63.5568155 C175.357801,62.0672417 177.93155,61.2377305 180.579816,61.1638796 C185.062094,61.1638796 187.344482,64.0020129 187.344482,69.1148265 L187.344482,79.9734688 L183.817781,79.9734688 L183.446549,77.9561682 L183.302181,77.9561682 C181.686636,79.34741 179.919848,80.4186662 177.802453,80.4186662 C176.365612,80.5067858 174.959274,79.9740051 173.932926,78.9527239 C172.906577,77.9314428 172.356573,76.5175416 172.419593,75.0623852 L172.419593,75.0623852 Z M183.006571,75.0623852 L183.006571,71.1808206 C178.084314,71.7790546 176.613136,72.8990042 176.613136,74.7632682 C176.613136,76.3284153 177.637461,76.9266493 179.108638,76.9266493 C180.579816,76.9266493 181.686636,76.3284153 183.006571,75.0623852 Z" id="Shape" fill="#FFFFFF"></path>
                        <path d="M192.160535,61.6176102 L195.838571,61.6176102 L196.178736,64.8995641 L196.292124,64.8995641 C197.652785,62.5076316 199.622908,61.1656463 201.593031,61.1656463 C202.320402,61.1470905 203.043942,61.2748745 203.719064,61.541124 L202.811956,65.3098084 C202.24176,65.1424233 201.649605,65.0580845 201.054437,65.0594898 C199.580388,65.0594898 197.79452,66.0259974 196.69607,68.8212209 L196.69607,79.9464883 L192.188882,79.9464883 L192.160535,61.6176102 Z" id="Path" fill="#FFFFFF"></path>
                        <path d="M204.682274,70.8344629 C204.682274,64.7123841 209.021916,61.1643612 213.963507,61.1643612 C215.957238,61.1423403 217.884497,61.8762209 219.353062,63.216649 L217.218238,65.999412 C216.403036,65.2247334 215.315271,64.7977633 214.187489,64.8097808 C211.26873,64.8097808 209.245897,67.1960002 209.245897,70.8553336 C209.245897,74.514667 211.233733,76.8591449 214.040501,76.8591449 C215.433482,76.8326405 216.772215,76.3176486 217.820188,75.4051512 L219.61204,78.1879143 C217.944721,79.6391795 215.801815,80.4357238 213.585538,80.4280936 C208.60195,80.4210816 204.682274,76.8869725 204.682274,70.8344629 Z" id="Path" fill="#FFFFFF"></path>
                        <path d="M222.983278,53.458194 L227.463744,53.458194 L227.463744,60.2848576 L227.280581,63.7821238 C228.788159,62.3832174 230.626841,60.9843109 233.15591,60.9843109 C237.143243,60.9843109 238.876254,63.6911949 238.876254,68.342559 L238.876254,79.8975266 L234.438056,79.8975266 L234.438056,68.9510833 C234.438056,65.9504289 233.571551,64.8592818 231.620152,64.8592818 C229.999858,64.8592818 228.943144,65.6146913 227.470789,67.1115213 L227.470789,79.9464883 L222.990322,79.9464883 L222.983278,53.458194 Z" id="Path" fill="#FFFFFF"></path>
                        <path d="M247.063545,55.8662207 L255.08508,55.8662207 C260.242291,55.8662207 264.020913,57.406589 264.020913,61.9086655 C264.020913,64.240223 262.720896,66.4947621 260.585153,67.2439412 L260.585153,67.3979781 C263.454501,67.8645059 265.508556,70.3692353 265.356645,73.2163693 C265.356645,78.1175412 261.235162,80.4280936 255.735089,80.4280936 L247.063545,80.4280936 L247.063545,55.8662207 Z M254.699361,65.9696365 C258.099406,65.9696365 259.592283,64.6533218 259.592283,62.5528195 C259.592283,60.2212621 257.985119,59.3600561 254.777933,59.3600561 L251.606463,59.3600561 L251.606463,65.9696365 L254.699361,65.9696365 Z M255.27794,76.9342582 C258.906559,76.9342582 260.885157,75.6949619 260.885157,72.9503057 C260.885157,70.4367046 258.942274,69.3094351 255.27794,69.3094351 L251.606463,69.3094351 L251.606463,76.9342582 L255.27794,76.9342582 Z" id="Shape" fill="#FFFFFF"></path>
                        <path d="M268.254181,67.7454167 C268.254181,59.6890948 273.279229,54.90301 279.467678,54.90301 C282.16471,54.898762 284.738051,56.0354854 286.553207,58.0329171 L284.191364,60.7768386 C282.978686,59.5101089 281.2971,58.8015376 279.544771,58.8188997 C275.648081,58.8188997 272.802656,62.1312551 272.802656,67.6261158 C272.802656,73.1209765 275.388769,76.5526328 279.467678,76.5526328 C281.458448,76.5724757 283.354494,75.7029487 284.639904,74.1806495 L287.036789,76.854394 C285.132375,79.166596 282.278098,80.4819194 279.285459,80.4264044 C273.167094,80.4334221 268.254181,75.9210397 268.254181,67.7454167 Z" id="Path" fill="#FFFFFF"></path>
                    </g>
                </g>
            </g>
        </g>
    </g>
</svg>