<?xml version="1.0" encoding="utf-8"?>
<!-- Generator: Adobe Illustrator 26.2.1, SVG Export Plug-In . SVG Version: 6.00 Build 0)  -->
<svg version="1.1" id="Layer_1" xmlns="http://www.w3.org/2000/svg" xmlns:xlink="http://www.w3.org/1999/xlink" x="0px" y="0px"
	 viewBox="0 0 167 52" style="enable-background:new 0 0 167 52;" xml:space="preserve">
<style type="text/css">
	.st0{fill-rule:evenodd;clip-rule:evenodd;fill:#8A2C7D;}
	.st1{fill-rule:evenodd;clip-rule:evenodd;fill:#78226B;}
	.st2{fill-rule:evenodd;clip-rule:evenodd;fill:#56124C;}
	.st3{fill-rule:evenodd;clip-rule:evenodd;fill:#00648C;}
	.st4{fill-rule:evenodd;clip-rule:evenodd;fill:#1A1919;}
	.st5{filter:url(#Adobe_OpacityMaskFilter);}
	.st6{fill-rule:evenodd;clip-rule:evenodd;fill:#FFFFFF;}
	.st7{mask:url(#mask-2_00000142872947363906446680000008515487046696477361_);fill-rule:evenodd;clip-rule:evenodd;fill:#1A1919;}
	.st8{filter:url(#Adobe_OpacityMaskFilter_00000098216091847627996080000004521057411077459366_);}
	.st9{mask:url(#mask-2_00000022523441906517111190000001410724546599141298_);fill-rule:evenodd;clip-rule:evenodd;fill:#1A1919;}
	.st10{filter:url(#Adobe_OpacityMaskFilter_00000028303685897555871680000015217264633124065954_);}
	.st11{mask:url(#mask-2_00000111889324403286426230000005743725726874099624_);fill-rule:evenodd;clip-rule:evenodd;fill:#1A1919;}
	.st12{filter:url(#Adobe_OpacityMaskFilter_00000139991341539221820110000007605207127655649970_);}
	.st13{mask:url(#mask-2_00000120561315323453811050000003033024361878203579_);fill-rule:evenodd;clip-rule:evenodd;fill:#1A1919;}
	.st14{filter:url(#Adobe_OpacityMaskFilter_00000170263286942058407810000001658870399358451898_);}
	.st15{mask:url(#mask-2_00000169543907398545513350000002136752139948200617_);fill-rule:evenodd;clip-rule:evenodd;fill:#1A1919;}
	.st16{filter:url(#Adobe_OpacityMaskFilter_00000050642258083140441770000004600030293939722138_);}
	.st17{mask:url(#mask-2_00000036947385117810158500000011281402721923971501_);fill-rule:evenodd;clip-rule:evenodd;fill:#1A1919;}
	.st18{filter:url(#Adobe_OpacityMaskFilter_00000101782534320262993460000007916814571769882762_);}
	.st19{mask:url(#mask-2_00000165204932770613502890000015051308155386983043_);fill-rule:evenodd;clip-rule:evenodd;fill:#1A1919;}
	.st20{filter:url(#Adobe_OpacityMaskFilter_00000145769376362285885330000008704678946107563664_);}
	.st21{mask:url(#mask-4_00000152968008415043025770000008840103765281794474_);fill-rule:evenodd;clip-rule:evenodd;fill:#1A1919;}
	.st22{filter:url(#Adobe_OpacityMaskFilter_00000098926596370454489640000002912238920070506165_);}
	.st23{mask:url(#mask-4_00000047028942379783773650000000167590036782649218_);fill-rule:evenodd;clip-rule:evenodd;fill:#1A1919;}
</style>
<g id="Page-1">
	<g id="logo-update---MSFHR" transform="translate(-98.000000, -30.000000)">
		<g id="Group_00000000186598054735458410000002143384302322369725_" transform="translate(98.000000, 23.177175)">
			<g id="Group-2" transform="translate(-0.000000, -0.000000)">
				<g id="MSHRBC_CMYK" transform="translate(-0.000000, 9.822825)">
					<polyline id="Fill-1" class="st0" points="0,24 20.9,24 0,44.9 0,24 					"/>
					<polyline id="Fill-2" class="st1" points="41.8,44.9 20.9,24 41.8,24 41.8,44.9 					"/>
					<polyline id="Fill-3" class="st0" points="0,3.1 20.9,3.1 20.9,24 0,3.1 					"/>
					<polyline id="Fill-4" class="st1" points="20.9,24 20.9,44.9 0,44.9 20.9,24 					"/>
					<polyline id="Fill-5" class="st2" points="41.8,44.9 20.9,44.9 20.9,24 41.8,44.9 					"/>
					<polyline id="Fill-6" class="st1" points="0,3.1 20.9,24 0,24 0,3.1 					"/>
					<polyline id="Fill-7" class="st3" points="44.3,20.9 23.4,0 44.3,0 44.3,20.9 					"/>
					<path id="Fill-8" class="st4" d="M55.6,3.6h0.6l1.4,4c0.2,0.5,0.4,1,0.5,1.5h0c0.2-0.5,0.3-1,0.5-1.5l1.4-4h0.6v6.8h-0.4V5.9
						c0-0.5,0-1.3,0.1-1.8h0l-0.5,1.5l-1.5,4.1H58l-1.5-4.1L56,4h0C56,4.6,56,5.3,56,5.9v4.6h-0.4V3.6"/>
					<path id="Fill-9" class="st4" d="M62.8,10.4h0.6v-5h-0.6V10.4z M62.6,3.8c0-0.2,0.2-0.4,0.5-0.4s0.5,0.2,0.5,0.4
						c0,0.2-0.2,0.4-0.5,0.4S62.6,4.1,62.6,3.8L62.6,3.8z"/>
					<path id="Fill-10" class="st4" d="M64.7,8c0-1.7,1.1-2.6,2.2-2.6c0.7,0,1.1,0.3,1.5,0.6l-0.2,0.3c-0.3-0.3-0.7-0.5-1.2-0.5
						c-1,0-1.8,0.9-1.8,2.2c0,1.3,0.7,2.2,1.8,2.2c0.5,0,1-0.2,1.3-0.5l0.2,0.3c-0.4,0.4-0.9,0.7-1.6,0.7C65.6,10.6,64.7,9.6,64.7,8
						"/>
					<path id="Fill-11" class="st4" d="M69.7,3h0.4v2.2l0,1.1c0.5-0.5,1-0.9,1.7-0.9c1,0,1.5,0.6,1.5,1.9v3.2h-0.4V7.3
						c0-1.1-0.3-1.6-1.1-1.6c-0.6,0-1,0.3-1.6,1v3.8h-0.4V3"/>
					<path id="Fill-12" class="st4" d="M77.9,9.4V7.7c-2.1,0.2-2.8,0.7-2.8,1.5c0,0.7,0.5,1,1.1,1C76.7,10.2,77.3,9.9,77.9,9.4z
						 M74.7,9.2c0-1.1,1-1.6,3.2-1.9c0-0.8-0.2-1.6-1.2-1.6c-0.7,0-1.3,0.3-1.6,0.6L74.9,6c0.3-0.3,1-0.6,1.8-0.6
						c1.2,0,1.6,0.9,1.6,1.9v3.2h-0.4l-0.1-0.7h0c-0.5,0.4-1.1,0.8-1.8,0.8C75.3,10.6,74.7,10.1,74.7,9.2L74.7,9.2z"/>
					<path id="Fill-13" class="st4" d="M83.3,7.6c0-1.3-0.6-1.9-1.5-1.9c-0.8,0-1.6,0.7-1.7,1.9H83.3z M79.6,8
						c0-1.6,1.1-2.6,2.2-2.6c1.2,0,1.9,0.8,1.9,2.3c0,0.1,0,0.2,0,0.4h-3.6c0,1.3,0.8,2.2,1.9,2.2c0.5,0,1-0.2,1.3-0.4l0.2,0.3
						c-0.4,0.3-0.8,0.5-1.6,0.5C80.6,10.6,79.6,9.6,79.6,8L79.6,8z"/>
					<path id="Fill-14" class="st4" d="M85,9.8V3h0.4v6.9c0,0.2,0.1,0.3,0.2,0.3c0,0,0.1,0,0.2,0l0.1,0.3c-0.1,0.1-0.2,0.1-0.3,0.1
						C85.2,10.6,85,10.3,85,9.8"/>
					<path id="Fill-15" class="st4" d="M89,9.5l0.3-0.3c0.5,0.6,1.2,0.9,2,0.9c1.1,0,1.7-0.6,1.7-1.4c0-0.9-0.6-1.1-1.2-1.4l-1-0.5
						c-0.6-0.3-1.4-0.7-1.4-1.7c0-1,0.8-1.7,2-1.7c0.8,0,1.5,0.4,1.9,0.8l-0.3,0.3c-0.4-0.4-0.9-0.7-1.6-0.7c-0.9,0-1.5,0.5-1.5,1.2
						c0,0.8,0.7,1.1,1.2,1.3l1,0.5c0.8,0.3,1.4,0.8,1.4,1.8c0,1-0.9,1.8-2.2,1.8C90.3,10.6,89.5,10.1,89,9.5"/>
					<path id="Fill-16" class="st4" d="M94.8,5.5h0.4l0.1,0.8h0c0.4-0.5,1-0.9,1.6-0.9c0.8,0,1.2,0.4,1.4,1c0.6-0.6,1.1-1,1.7-1
						c1,0,1.5,0.6,1.5,1.9v3.2h-0.4V7.3c0-1.1-0.4-1.6-1.1-1.6c-0.5,0-0.9,0.3-1.5,1v3.8h-0.4V7.3c0-1.1-0.4-1.6-1.1-1.6
						c-0.5,0-0.9,0.3-1.5,1v3.8h-0.4V5.5"/>
					<path id="Fill-17" class="st4" d="M103.1,10.4h0.6v-5h-0.6V10.4z M102.9,3.8c0-0.2,0.2-0.4,0.5-0.4s0.5,0.2,0.5,0.4
						c0,0.2-0.2,0.4-0.5,0.4S102.9,4.1,102.9,3.8L102.9,3.8z"/>
					<path id="Fill-18" class="st4" d="M105.5,9.1V5.8h-0.8V5.5l0.8,0l0.1-1.6h0.4v1.6h1.4v0.4h-1.4v3.3c0,0.6,0.2,1.1,0.8,1.1
						c0.2,0,0.4,0,0.6-0.2l0.1,0.3c-0.3,0.1-0.6,0.2-0.8,0.2C105.8,10.6,105.5,10,105.5,9.1"/>
					<path id="Fill-19" class="st4" d="M108.5,3h0.4v2.2l0,1.1c0.5-0.5,1-0.9,1.7-0.9c1,0,1.5,0.6,1.5,1.9v3.2h-0.4V7.3
						c0-1.1-0.3-1.6-1.1-1.6c-0.6,0-1,0.3-1.6,1v3.8h-0.4V3"/>
					<polyline id="Fill-20" class="st4" points="55.6,14.4 58.1,14.4 58.1,19.9 63.6,19.9 63.6,14.4 66.1,14.4 66.1,28.1 63.6,28.1 
						63.6,22.1 58.1,22.1 58.1,28.1 55.6,28.1 55.6,14.4 					"/>
					<path id="Fill-21" class="st4" d="M75.4,21.9c0-1.5-0.7-2.4-2.1-2.4c-1.2,0-2.2,0.8-2.4,2.4H75.4z M68.5,23
						c0-3.4,2.3-5.4,4.8-5.4c2.8,0,4.3,2,4.3,4.9c0,0.5,0,0.9-0.1,1.3H71c0.3,1.7,1.3,2.7,3,2.7c0.9,0,1.7-0.3,2.4-0.7l0.8,1.6
						c-1,0.7-2.2,1.1-3.6,1.1C70.8,28.4,68.5,26.4,68.5,23L68.5,23z"/>
					<path id="Fill-22" class="st4" d="M85,25.4v-2.2c-2.8,0.3-3.6,1-3.6,2c0,0.9,0.6,1.2,1.4,1.2C83.6,26.4,84.3,26.1,85,25.4z
						 M79,25.4c0-2.3,1.8-3.4,6-3.9c0-1.1-0.5-1.9-1.8-1.9c-1,0-2,0.4-2.9,1l-0.9-1.6c1.1-0.7,2.6-1.3,4.2-1.3
						c2.6,0,3.9,1.6,3.9,4.5v6.1h-2L85.3,27h-0.1c-0.9,0.8-1.9,1.4-3.1,1.4C80.2,28.4,79,27.2,79,25.4L79,25.4z"/>
					<path id="Fill-23" class="st4" d="M90.2,25.4V13.3h2.5v12.3c0,0.6,0.3,0.8,0.5,0.8c0.1,0,0.2,0,0.4,0l0.3,1.8
						c-0.3,0.1-0.7,0.2-1.3,0.2C90.9,28.4,90.2,27.3,90.2,25.4"/>
					<path id="Fill-24" class="st4" d="M96.2,24.6v-4.9h-1.5v-1.9l1.6-0.1l0.3-3.2h2.1v3.2h2.6v2h-2.6v4.9c0,1.2,0.5,1.8,1.4,1.8
						c0.4,0,0.7-0.1,1.1-0.2l0.4,1.7c-0.5,0.3-1.3,0.4-2.1,0.4C97.1,28.4,96.2,26.9,96.2,24.6"/>
					<path id="Fill-25" class="st4" d="M103.3,13.3h2.5v3.8l-0.1,2c0.8-0.8,1.9-1.6,3.3-1.6c2.2,0,3.2,1.5,3.2,4.1v6.5h-2.5V22
						c0-1.7-0.5-2.3-1.6-2.3c-0.9,0-1.5,0.4-2.3,1.3v7.2h-2.5V13.3"/>
					<g id="Group-34" transform="translate(55.628990, 31.132496)">
						<g id="Clip-27">
						</g>
						<defs>
							<filter id="Adobe_OpacityMaskFilter" filterUnits="userSpaceOnUse" x="0" y="0" width="10.3" height="13.8">
								<feColorMatrix  type="matrix" values="1 0 0 0 0  0 1 0 0 0  0 0 1 0 0  0 0 0 1 0"/>
							</filter>
						</defs>
						
							<mask maskUnits="userSpaceOnUse" x="0" y="0" width="10.3" height="13.8" id="mask-2_00000142872947363906446680000008515487046696477361_">
							<g class="st5">
								<polygon id="path-1_00000044895208325897898700000008131459281696251812_" class="st6" points="0,0 67.7,0 67.7,14 0,14 
																	"/>
							</g>
						</mask>
						<path id="Fill-26" class="st7" d="M4.4,6.4c1.9,0,2.9-0.8,2.9-2.3c0-1.6-1-2.1-2.9-2.1H2.5v4.4H4.4z M0,0h4.6
							c2.9,0,5.1,1,5.1,4.1C9.7,6.2,8.6,7.5,7,8l3.3,5.7H7.5L4.5,8.4h-2v5.3H0V0L0,0z"/>
						<defs>
							
								<filter id="Adobe_OpacityMaskFilter_00000163754224938593267460000011987372003664472221_" filterUnits="userSpaceOnUse" x="11.2" y="3.2" width="9.1" height="10.9">
								<feColorMatrix  type="matrix" values="1 0 0 0 0  0 1 0 0 0  0 0 1 0 0  0 0 0 1 0"/>
							</filter>
						</defs>
						
							<mask maskUnits="userSpaceOnUse" x="11.2" y="3.2" width="9.1" height="10.9" id="mask-2_00000022523441906517111190000001410724546599141298_">
							<g style="filter:url(#Adobe_OpacityMaskFilter_00000163754224938593267460000011987372003664472221_);">
								<polygon id="path-1_00000031183154927495034650000004529086354680420530_" class="st6" points="0,0 67.7,0 67.7,14 0,14 
																	"/>
							</g>
						</mask>
						<path id="Fill-28" class="st9" d="M18.1,7.5c0-1.5-0.7-2.4-2.1-2.4c-1.2,0-2.2,0.8-2.4,2.4H18.1z M11.2,8.6
							c0-3.4,2.3-5.4,4.8-5.4c2.8,0,4.3,2,4.3,4.9c0,0.5,0,0.9-0.1,1.3h-6.5c0.3,1.7,1.3,2.7,3,2.7c0.9,0,1.7-0.3,2.4-0.7l0.8,1.6
							c-1,0.7-2.2,1.1-3.6,1.1C13.5,14,11.2,12,11.2,8.6L11.2,8.6z"/>
						<defs>
							
								<filter id="Adobe_OpacityMaskFilter_00000163048590060550271950000010480475878963286664_" filterUnits="userSpaceOnUse" x="21.5" y="3.2" width="7.9" height="10.9">
								<feColorMatrix  type="matrix" values="1 0 0 0 0  0 1 0 0 0  0 0 1 0 0  0 0 0 1 0"/>
							</filter>
						</defs>
						
							<mask maskUnits="userSpaceOnUse" x="21.5" y="3.2" width="7.9" height="10.9" id="mask-2_00000111889324403286426230000005743725726874099624_">
							<g style="filter:url(#Adobe_OpacityMaskFilter_00000163048590060550271950000010480475878963286664_);">
								<polygon id="path-1_00000138540104250222929140000000167757246288460429_" class="st6" points="0,0 67.7,0 67.7,14 0,14 
																	"/>
							</g>
						</mask>
						<path id="Fill-29" class="st11" d="M21.5,12.5l1.1-1.4c0.9,0.7,1.8,1.1,2.9,1.1c1.1,0,1.6-0.5,1.6-1.2c0-0.9-1-1.2-2.2-1.6
							C23.4,8.8,22,7.9,22,6.3c0-1.8,1.5-3.1,3.8-3.1c1.4,0,2.6,0.5,3.4,1.3l-1.1,1.4C27.4,5.3,26.7,5,25.9,5c-1,0-1.5,0.5-1.5,1.1
							c0,0.8,0.7,1.1,2,1.5c1.6,0.5,3,1.4,3,3.2c0,1.8-1.4,3.2-4,3.2C23.9,14,22.5,13.5,21.5,12.5"/>
						<defs>
							
								<filter id="Adobe_OpacityMaskFilter_00000003106404416461904330000008729565887733557896_" filterUnits="userSpaceOnUse" x="30.7" y="3.2" width="9.1" height="10.9">
								<feColorMatrix  type="matrix" values="1 0 0 0 0  0 1 0 0 0  0 0 1 0 0  0 0 0 1 0"/>
							</filter>
						</defs>
						
							<mask maskUnits="userSpaceOnUse" x="30.7" y="3.2" width="9.1" height="10.9" id="mask-2_00000120561315323453811050000003033024361878203579_">
							<g style="filter:url(#Adobe_OpacityMaskFilter_00000003106404416461904330000008729565887733557896_);">
								<polygon id="path-1_00000048477228101606695930000005395089715828964797_" class="st6" points="0,0 67.7,0 67.7,14 0,14 
																	"/>
							</g>
						</mask>
						<path id="Fill-30" class="st13" d="M37.6,7.5c0-1.5-0.7-2.4-2.1-2.4c-1.2,0-2.2,0.8-2.4,2.4H37.6z M30.7,8.6
							c0-3.4,2.3-5.4,4.8-5.4c2.8,0,4.3,2,4.3,4.9c0,0.5,0,0.9-0.1,1.3h-6.5c0.3,1.7,1.3,2.7,3,2.7c0.9,0,1.7-0.3,2.4-0.7l0.8,1.6
							c-1,0.7-2.2,1.1-3.6,1.1C33,14,30.7,12,30.7,8.6L30.7,8.6z"/>
						<defs>
							
								<filter id="Adobe_OpacityMaskFilter_00000093156093797004737960000009504578885322350013_" filterUnits="userSpaceOnUse" x="41.2" y="3.2" width="8.5" height="10.9">
								<feColorMatrix  type="matrix" values="1 0 0 0 0  0 1 0 0 0  0 0 1 0 0  0 0 0 1 0"/>
							</filter>
						</defs>
						
							<mask maskUnits="userSpaceOnUse" x="41.2" y="3.2" width="8.5" height="10.9" id="mask-2_00000169543907398545513350000002136752139948200617_">
							<g style="filter:url(#Adobe_OpacityMaskFilter_00000093156093797004737960000009504578885322350013_);">
								<polygon id="path-1_00000021815035737827102620000015753700015795523482_" class="st6" points="0,0 67.7,0 67.7,14 0,14 
																	"/>
							</g>
						</mask>
						<path id="Fill-31" class="st15" d="M47.2,11V8.8c-2.8,0.3-3.6,1-3.6,2c0,0.9,0.6,1.2,1.4,1.2C45.8,12,46.5,11.7,47.2,11z
							 M41.2,11c0-2.3,1.8-3.4,6-3.9c0-1.1-0.5-1.9-1.8-1.9c-1,0-2,0.4-2.9,1l-0.9-1.6c1.1-0.7,2.6-1.3,4.2-1.3
							c2.6,0,3.9,1.6,3.9,4.5v6.1h-2l-0.2-1.1h-0.1c-0.9,0.8-1.9,1.4-3.1,1.4C42.4,14,41.2,12.8,41.2,11L41.2,11z"/>
						<defs>
							
								<filter id="Adobe_OpacityMaskFilter_00000082367074346715753730000009208615767570276514_" filterUnits="userSpaceOnUse" x="52.4" y="3.2" width="6.4" height="10.6">
								<feColorMatrix  type="matrix" values="1 0 0 0 0  0 1 0 0 0  0 0 1 0 0  0 0 0 1 0"/>
							</filter>
						</defs>
						
							<mask maskUnits="userSpaceOnUse" x="52.4" y="3.2" width="6.4" height="10.6" id="mask-2_00000036947385117810158500000011281402721923971501_">
							<g style="filter:url(#Adobe_OpacityMaskFilter_00000082367074346715753730000009208615767570276514_);">
								<polygon id="path-1_00000069376047376536560080000006085938112139252109_" class="st6" points="0,0 67.7,0 67.7,14 0,14 
																	"/>
							</g>
						</mask>
						<path id="Fill-32" class="st17" d="M52.4,3.4h2l0.2,1.9h0.1c0.8-1.3,1.8-2.1,2.9-2.1c0.5,0,0.9,0.1,1.2,0.2l-0.5,2.1
							c-0.3-0.1-0.6-0.1-1-0.1c-0.8,0-1.8,0.5-2.4,2.1v6.3h-2.5V3.4"/>
						<defs>
							
								<filter id="Adobe_OpacityMaskFilter_00000162315788072309502050000015604399305225384358_" filterUnits="userSpaceOnUse" x="59.3" y="3.2" width="8.4" height="10.9">
								<feColorMatrix  type="matrix" values="1 0 0 0 0  0 1 0 0 0  0 0 1 0 0  0 0 0 1 0"/>
							</filter>
						</defs>
						
							<mask maskUnits="userSpaceOnUse" x="59.3" y="3.2" width="8.4" height="10.9" id="mask-2_00000165204932770613502890000015051308155386983043_">
							<g style="filter:url(#Adobe_OpacityMaskFilter_00000162315788072309502050000015604399305225384358_);">
								<polygon id="path-1_00000129904548643556680270000006790908211120054163_" class="st6" points="0,0 67.7,0 67.7,14 0,14 
																	"/>
							</g>
						</mask>
						<path id="Fill-33" class="st19" d="M59.3,8.6c0-3.5,2.4-5.5,5.2-5.5c1.3,0,2.3,0.5,3,1.2l-1.2,1.6c-0.5-0.5-1-0.7-1.7-0.7
							c-1.6,0-2.8,1.3-2.8,3.4c0,2,1.1,3.4,2.7,3.4c0.8,0,1.5-0.3,2.1-0.8l1,1.6c-1,0.9-2.2,1.3-3.4,1.3C61.5,14,59.3,12,59.3,8.6"
							/>
					</g>
					<path id="Fill-35" class="st4" d="M125.2,30h2.5v3.8l-0.1,2c0.8-0.8,1.9-1.6,3.3-1.6c2.2,0,3.2,1.5,3.2,4.1v6.5h-2.5v-6.2
						c0-1.7-0.5-2.3-1.6-2.3c-0.9,0-1.5,0.4-2.3,1.3v7.2h-2.5V30"/>
					<g id="Group-39" transform="translate(139.053962, 30.879874)">
						<g id="Clip-37">
						</g>
						<defs>
							
								<filter id="Adobe_OpacityMaskFilter_00000176032403630715541630000014866887679501119138_" filterUnits="userSpaceOnUse" x="0" y="0.3" width="10" height="13.8">
								<feColorMatrix  type="matrix" values="1 0 0 0 0  0 1 0 0 0  0 0 1 0 0  0 0 0 1 0"/>
							</filter>
						</defs>
						
							<mask maskUnits="userSpaceOnUse" x="0" y="0.3" width="10" height="13.8" id="mask-4_00000152968008415043025770000008840103765281794474_">
							<g style="filter:url(#Adobe_OpacityMaskFilter_00000176032403630715541630000014866887679501119138_);">
								<polygon id="path-3_00000020371763736204146670000001757676937574329740_" class="st6" points="0,0 22.3,0 22.3,14.2 
									0,14.2 								"/>
							</g>
						</mask>
						<path id="Fill-36" class="st21" d="M4.5,12.1c2,0,3.1-0.7,3.1-2.2c0-1.4-1.1-2-3.1-2h-2v4.3H4.5z M4.2,5.9
							c1.9,0,2.7-0.7,2.7-1.9c0-1.3-0.9-1.8-2.6-1.8H2.5v3.7H4.2z M0,0.3h4.4c2.8,0,4.9,0.9,4.9,3.4c0,1.3-0.7,2.6-1.9,3v0.1
							C8.9,7,10,8.1,10,10c0,2.8-2.3,4-5.3,4H0V0.3L0,0.3z"/>
						<defs>
							
								<filter id="Adobe_OpacityMaskFilter_00000039836932689114362150000013066402569039639227_" filterUnits="userSpaceOnUse" x="11.7" y="0" width="10.5" height="14.3">
								<feColorMatrix  type="matrix" values="1 0 0 0 0  0 1 0 0 0  0 0 1 0 0  0 0 0 1 0"/>
							</filter>
						</defs>
						
							<mask maskUnits="userSpaceOnUse" x="11.7" y="0" width="10.5" height="14.3" id="mask-4_00000047028942379783773650000000167590036782649218_">
							<g style="filter:url(#Adobe_OpacityMaskFilter_00000039836932689114362150000013066402569039639227_);">
								<polygon id="path-3_00000178166948921461807790000011850049269560563129_" class="st6" points="0,0 22.3,0 22.3,14.2 
									0,14.2 								"/>
							</g>
						</mask>
						<path id="Fill-38" class="st23" d="M11.7,7.2C11.7,2.7,14.5,0,18,0c1.7,0,3.1,0.8,4,1.7l-1.3,1.5c-0.7-0.7-1.5-1.1-2.6-1.1
							c-2.2,0-3.8,1.9-3.8,4.9c0,3.1,1.4,5,3.7,5c1.2,0,2.1-0.5,2.9-1.3l1.3,1.5c-1.2,1.3-2.6,2-4.3,2C14.5,14.3,11.7,11.7,11.7,7.2
							"/>
					</g>
				</g>
			</g>
		</g>
	</g>
</g>
</svg>
