<?xml version="1.0" encoding="UTF-8"?><svg id="Layer_2" xmlns="http://www.w3.org/2000/svg" viewBox="0 0 114.76 55.34"><defs><style>.cls-1{fill:#df202d;stroke-width:0px;}</style></defs><g id="Layer_1-2"><path class="cls-1" d="M0,.27v54.8h54.8V.27H0ZM27.4,50.83c-12.79,0-23.16-10.37-23.16-23.16S14.61,4.52,27.4,4.52s23.16,10.37,23.16,23.16-10.37,23.16-23.16,23.16Z"/><path class="cls-1" d="M40.31,24.42l-1.53-2.87-6.16,4.7,2.41-10.73-3.87,1.69-3.76-6.55-3.76,6.55-3.87-1.69,2.41,10.73-6.16-4.7-1.53,2.87-5.31-.74,1.53,6.07-1.76,1.51,8.97,7.21-1.95,3.8h4.88l1.35-9.53s.04-.08.09-.08.09.03.09.08l1.35,9.53h1.86l1.71-15.73s.04-.08.09-.08.08.03.09.08l1.71,15.73h1.87l1.35-9.53s.04-.08.09-.08.08.03.09.08l1.35,9.53h4.87l-1.95-3.8,8.97-7.21-1.75-1.51,1.53-6.07-5.31.74Z"/><path class="cls-1" d="M63.05,25.12h-3.08V.3h3.97l3.26,16.87c-.14-2.73-.28-6.2-.28-9V.3h3.12v24.82h-3.97l-3.26-16.87c.14,2.73.25,6.2.25,9v7.87Z"/><path class="cls-1" d="M78.12,8.54v-3.94c0-1.06-.46-1.81-1.42-1.81-.89,0-1.35.71-1.35,1.63v2.23c0,1.56.57,2.66,1.52,3.58l2.09,2.02c1.52,1.49,2.48,3.01,2.48,5.78v2.45c0,2.84-1.77,4.82-4.75,4.82s-4.68-1.84-4.68-4.64v-4.47h3.08v4.47c0,1.03.5,1.81,1.52,1.81.96,0,1.49-.67,1.49-1.7v-2.27c0-1.77-.43-2.77-1.49-3.76l-2.02-1.91c-1.7-1.6-2.59-3.44-2.59-6.13v-2.02c0-2.87,1.77-4.68,4.64-4.68,3.01,0,4.5,1.84,4.5,4.47v4.08h-3.05Z"/><path class="cls-1" d="M83.23.3h8.58v2.87h-5.28v7.62h3.51v2.87h-3.51v8.58h5.42v2.87h-8.72V.3Z"/><path class="cls-1" d="M99.95,21.46l-.11-5.39c-.04-1.74-.82-2.45-2.09-2.45h-.53v11.49h-3.3V.3h4.5c2.73,0,4.96,1.28,4.96,5v2.48c0,2.09-.67,3.83-2.45,4.57,1.45.5,2.13,1.91,2.23,3.9l.14,5.64c.07,1.7.25,3.05.28,3.23h-3.3c-.18-.6-.35-2.13-.35-3.65ZM97.23,10.79h.99c1.13,0,1.91-.82,1.91-2.38v-3.01c0-1.56-.67-2.3-1.88-2.3h-1.03v7.69Z"/><path class="cls-1" d="M114.76,16.25v4.25c0,2.91-1.56,4.86-4.57,4.86s-4.82-1.95-4.82-4.86V4.91c0-2.91,1.74-4.86,4.82-4.86s4.57,1.95,4.57,4.86v3.69h-3.08v-3.79c0-.92-.35-1.88-1.49-1.88s-1.49.96-1.49,1.88v15.81c0,.92.32,1.88,1.49,1.88s1.49-.96,1.49-1.88v-4.36h3.08Z"/><path class="cls-1" d="M69.36,46.23v4.25c0,2.91-1.56,4.86-4.57,4.86s-4.82-1.95-4.82-4.86v-15.6c0-2.91,1.74-4.86,4.82-4.86s4.57,1.95,4.57,4.86v3.69h-3.08v-3.79c0-.92-.35-1.88-1.49-1.88s-1.49.96-1.49,1.88v15.81c0,.92.32,1.88,1.49,1.88s1.49-.96,1.49-1.88v-4.36h3.08Z"/><path class="cls-1" d="M77.3,51.44l-.11-5.39c-.04-1.74-.82-2.45-2.09-2.45h-.53v11.49h-3.3v-24.82h4.5c2.73,0,4.96,1.28,4.96,5v2.48c0,2.09-.67,3.83-2.45,4.57,1.45.5,2.13,1.91,2.23,3.9l.14,5.64c.07,1.7.25,3.05.28,3.23h-3.3c-.18-.6-.35-2.13-.35-3.65ZM74.57,40.77h.99c1.13,0,1.91-.82,1.91-2.38v-3.01c0-1.56-.67-2.3-1.88-2.3h-1.03v7.69Z"/><path class="cls-1" d="M88.54,38.58v-3.94c0-1.06-.46-1.81-1.42-1.81-.89,0-1.35.71-1.35,1.63v2.23c0,1.56.57,2.66,1.52,3.58l2.09,2.02c1.52,1.49,2.48,3.01,2.48,5.78v2.45c0,2.84-1.77,4.82-4.75,4.82s-4.68-1.84-4.68-4.64v-4.47h3.08v4.47c0,1.03.5,1.81,1.52,1.81.96,0,1.49-.67,1.49-1.7v-2.27c0-1.77-.43-2.77-1.49-3.76l-2.02-1.91c-1.7-1.6-2.59-3.44-2.59-6.13v-2.02c0-2.87,1.77-4.68,4.64-4.68,3.01,0,4.5,1.84,4.5,4.47v4.08h-3.05Z"/><path class="cls-1" d="M96.5,55.1h-3.08v-24.82h3.97l3.26,16.87c-.14-2.73-.28-6.2-.28-9v-7.87h3.12v24.82h-3.97l-3.26-16.87c.14,2.73.25,6.2.25,9v7.87Z"/><path class="cls-1" d="M109.41,55.34c-2.34,0-4.11-1.52-4.11-4.36v-16.09c0-2.91,1.74-4.86,4.82-4.86s4.57,1.95,4.57,4.86v3.69h-3.08v-3.79c0-.92-.35-1.88-1.49-1.88s-1.49.96-1.49,1.88v15.81c0,.92.35,1.88,1.52,1.88.99,0,1.52-.71,1.52-1.88v-5.71h-1.81v-2.69h4.89v12.9h-.85l-1.49-1.1c-.39.6-1.45,1.35-3.01,1.35Z"/></g></svg>