<?xml version="1.0" encoding="UTF-8"?>
<svg id="Layer_2" data-name="Layer 2" xmlns="http://www.w3.org/2000/svg" version="1.1" viewBox="0 0 114.8 55.3">
  <defs>
    <style>
      .cls-1 {
        fill: #000;
        stroke-width: 0px;
      }
    </style>
  </defs>
  <g id="Layer_1-2" data-name="Layer 1-2">
    <path class="cls-1" d="M0,.3v54.8h54.8V.3H0ZM27.4,50.8c-12.8,0-23.2-10.4-23.2-23.2S14.6,4.5,27.4,4.5s23.2,10.4,23.2,23.2-10.4,23.2-23.2,23.2h0Z"/>
    <path class="cls-1" d="M40.3,24.4l-1.5-2.9-6.2,4.7,2.4-10.7-3.9,1.7-3.8-6.6-3.8,6.6-3.9-1.7,2.4,10.7-6.2-4.7-1.5,2.9-5.3-.7,1.5,6.1-1.8,1.5,9,7.2-1.9,3.8h4.9l1.4-9.5s0,0,0,0,0,0,0,0l1.4,9.5h1.9l1.7-15.7s0,0,0,0,0,0,0,0l1.7,15.7h1.9l1.4-9.5s0,0,0,0,0,0,0,0l1.3,9.5h4.9l-2-3.8,9-7.2-1.8-1.5,1.5-6.1-5.3.7h0Z"/>
    <path class="cls-1" d="M63,25.1h-3.1V.3h4l3.3,16.9c-.1-2.7-.3-6.2-.3-9V.3h3.1v24.8h-4l-3.3-16.9c.1,2.7.2,6.2.2,9v7.9h0Z"/>
    <path class="cls-1" d="M78.1,8.5v-3.9c0-1.1-.5-1.8-1.4-1.8s-1.3.7-1.3,1.6v2.2c0,1.6.6,2.7,1.5,3.6l2.1,2c1.5,1.5,2.5,3,2.5,5.8v2.5c0,2.8-1.8,4.8-4.8,4.8s-4.7-1.8-4.7-4.6v-4.5h3.1v4.5c0,1,.5,1.8,1.5,1.8s1.5-.7,1.5-1.7v-2.3c0-1.8-.4-2.8-1.5-3.8l-2-1.9c-1.7-1.6-2.6-3.4-2.6-6.1v-2c0-2.9,1.8-4.7,4.6-4.7s4.5,1.8,4.5,4.5v4.1h-3.1,0Z"/>
    <path class="cls-1" d="M83.2.3h8.6v2.9h-5.3v7.6h3.5v2.9h-3.5v8.6h5.4v2.9h-8.7V.3Z"/>
    <path class="cls-1" d="M99.9,21.5v-5.4c-.2-1.7-.9-2.4-2.2-2.4h-.5v11.5h-3.3V.3h4.5c2.7,0,5,1.3,5,5v2.5c0,2.1-.7,3.8-2.4,4.6,1.4.5,2.1,1.9,2.2,3.9v5.6c.2,1.7.4,3,.4,3.2h-3.3c-.2-.6-.3-2.1-.3-3.6h0ZM97.2,10.8h1c1.1,0,1.9-.8,1.9-2.4v-3c0-1.6-.7-2.3-1.9-2.3h-1v7.7h0Z"/>
    <path class="cls-1" d="M114.8,16.2v4.2c0,2.9-1.6,4.9-4.6,4.9s-4.8-2-4.8-4.9V4.9c0-2.9,1.7-4.9,4.8-4.9s4.6,2,4.6,4.9v3.7h-3.1v-3.8c0-.9-.3-1.9-1.5-1.9s-1.5,1-1.5,1.9v15.8c0,.9.3,1.9,1.5,1.9s1.5-1,1.5-1.9v-4.4h3.1Z"/>
    <path class="cls-1" d="M69.4,46.2v4.2c0,2.9-1.6,4.9-4.6,4.9s-4.8-2-4.8-4.9v-15.6c0-2.9,1.7-4.9,4.8-4.9s4.6,2,4.6,4.9v3.7h-3.1v-3.8c0-.9-.3-1.9-1.5-1.9s-1.5,1-1.5,1.9v15.8c0,.9.3,1.9,1.5,1.9s1.5-1,1.5-1.9v-4.4s3.1,0,3.1,0Z"/>
    <path class="cls-1" d="M77.3,51.4v-5.4c-.2-1.7-.9-2.5-2.2-2.5h-.5v11.5h-3.3v-24.8h4.5c2.7,0,5,1.3,5,5v2.5c0,2.1-.7,3.8-2.4,4.6,1.4.5,2.1,1.9,2.2,3.9v5.6c.2,1.7.4,3,.4,3.2h-3.3c-.2-.6-.3-2.1-.3-3.7h0ZM74.6,40.8h1c1.1,0,1.9-.8,1.9-2.4v-3c0-1.6-.7-2.3-1.9-2.3h-1v7.7h0Z"/>
    <path class="cls-1" d="M88.5,38.6v-3.9c0-1.1-.5-1.8-1.4-1.8s-1.3.7-1.3,1.6v2.2c0,1.6.6,2.7,1.5,3.6l2.1,2c1.5,1.5,2.5,3,2.5,5.8v2.5c0,2.8-1.8,4.8-4.8,4.8s-4.7-1.8-4.7-4.6v-4.5h3.1v4.5c0,1,.5,1.8,1.5,1.8s1.5-.7,1.5-1.7v-2.3c0-1.8-.4-2.8-1.5-3.8l-2-1.9c-1.7-1.6-2.6-3.4-2.6-6.1v-2c0-2.9,1.8-4.7,4.6-4.7s4.5,1.8,4.5,4.5v4.1h-3.1,0Z"/>
    <path class="cls-1" d="M96.5,55.1h-3.1v-24.8h4l3.3,16.9c-.1-2.7-.3-6.2-.3-9v-7.9h3.1v24.8h-4l-3.3-16.9c.1,2.7.2,6.2.2,9v7.9h0Z"/>
    <path class="cls-1" d="M109.4,55.3c-2.3,0-4.1-1.5-4.1-4.4v-16.1c0-2.9,1.7-4.9,4.8-4.9s4.6,2,4.6,4.9v3.7h-3.1v-3.8c0-.9-.3-1.9-1.5-1.9s-1.5,1-1.5,1.9v15.8c0,.9.3,1.9,1.5,1.9s1.5-.7,1.5-1.9v-5.7h-1.8v-2.7h4.9v12.9h-.8l-1.5-1.1c-.4.6-1.4,1.3-3,1.3h0Z"/>
  </g>
</svg>